<?xml version="1.0" standalone="no"?>
<!DOCTYPE svg PUBLIC "-//W3C//DTD SVG 20010904//EN"
 "http://www.w3.org/TR/2001/REC-SVG-20010904/DTD/svg10.dtd">
<svg version="1.0" xmlns="http://www.w3.org/2000/svg"
 width="900.000000pt" height="1600.000000pt" viewBox="0 0 900.000000 1600.000000"
 preserveAspectRatio="xMidYMid meet">

<g transform="translate(0.000000,1600.000000) scale(0.100000,-0.100000)"
fill="#000000" stroke="none">
<path d="M0 15328 c0 -650 1 -671 18 -655 21 19 58 23 64 6 2 -6 21 -15 43
-19 22 -5 53 -12 68 -16 17 -4 38 -1 53 6 28 15 34 11 49 -33 5 -18 16 -33 23
-33 6 -1 21 -2 33 -3 15 -1 19 -6 15 -16 -4 -10 3 -19 18 -25 28 -10 45 -65
27 -83 -8 -8 -11 -6 -11 6 0 32 -18 17 -28 -23 -10 -39 -9 -40 15 -40 16 0 27
7 30 20 3 12 14 20 25 20 15 0 19 -5 15 -20 -3 -13 0 -20 9 -20 8 0 14 -9 14
-20 0 -31 22 -70 39 -70 24 0 82 -38 119 -77 36 -40 38 -46 17 -66 -13 -13
-13 -16 0 -21 8 -3 15 -14 15 -24 0 -10 5 -23 10 -28 7 -7 0 -19 -21 -38 -25
-23 -37 -27 -63 -22 -18 4 -36 3 -39 -1 -12 -12 -77 -31 -77 -23 0 4 -10 10
-23 14 -14 3 -29 20 -40 43 -9 21 -26 45 -37 53 -12 8 -35 27 -53 43 -35 31
-45 33 -53 12 -4 -8 -14 -15 -23 -14 -10 0 -11 2 -3 6 19 8 14 39 -10 55 -16
11 -19 19 -13 34 7 17 8 17 12 2 3 -10 9 -18 15 -18 5 0 -2 20 -17 45 -14 25
-23 50 -19 56 4 8 -3 9 -25 4 -20 -4 -31 -3 -31 4 0 6 -6 11 -14 11 -8 0 -27
11 -43 23 -15 13 -41 27 -58 32 -27 6 -28 8 -10 15 19 7 19 8 2 15 -10 4 -16
13 -13 20 3 8 -2 16 -10 19 -12 5 -14 -46 -14 -359 l0 -365 24 0 c18 0 26 -6
28 -22 4 -25 28 -37 28 -14 0 25 18 19 34 -11 12 -24 70 -76 86 -78 3 -1 16
-5 29 -9 18 -6 26 -4 33 8 14 25 34 19 55 -16 25 -41 70 -68 83 -49 10 17 33
4 26 -14 -4 -12 32 -55 47 -55 4 0 7 9 7 20 0 11 3 20 8 20 15 -1 42 -28 42
-42 0 -13 27 -25 72 -32 4 -1 12 -6 19 -13 9 -9 16 -7 28 9 l17 20 17 -26 c11
-16 26 -26 40 -25 17 1 18 2 5 6 -25 6 -22 16 7 30 30 13 65 6 65 -13 0 -17
12 -18 28 -2 8 8 15 8 27 -2 13 -11 18 -11 24 -1 13 20 57 10 53 -13 -3 -18
16 -41 56 -63 28 -17 37 -16 23 0 -6 8 -8 17 -4 20 11 12 88 8 101 -5 8 -8 12
-9 12 -1 0 25 71 -9 111 -52 23 -25 46 -42 52 -38 5 3 7 2 4 -4 -3 -5 5 -22
19 -39 13 -16 31 -44 39 -62 8 -18 22 -35 32 -39 28 -9 73 -62 67 -77 -3 -8 4
-16 20 -20 17 -4 23 -11 20 -21 -8 -19 13 -19 32 0 17 16 87 13 110 -6 21 -17
44 -3 45 28 0 15 3 22 6 15 4 -10 10 -10 28 2 21 14 28 13 76 -6 30 -11 66
-23 81 -25 37 -7 120 18 114 33 -3 7 2 15 10 18 8 3 14 12 14 19 0 10 8 13 25
10 15 -3 31 1 41 12 20 19 82 15 95 -7 7 -10 11 -10 21 0 13 13 138 17 138 4
0 -4 18 -7 40 -5 37 2 40 0 40 -25 0 -21 5 -27 23 -28 50 -4 67 -9 67 -21 0
-10 18 -13 75 -11 45 2 75 -1 75 -7 0 -6 38 -11 93 -11 134 -2 215 -14 274
-41 28 -12 71 -23 94 -23 26 0 59 -10 90 -26 42 -23 51 -25 65 -13 14 12 20
10 41 -16 19 -22 34 -29 59 -28 19 1 37 -3 40 -8 3 -5 17 -9 31 -9 15 0 33
-10 44 -24 11 -14 33 -27 49 -31 16 -4 32 -11 35 -16 3 -5 14 -3 25 3 15 10
23 9 39 -6 12 -11 29 -16 40 -13 11 2 32 -3 48 -12 15 -10 50 -18 76 -19 71
-3 80 -16 72 -107 -5 -47 -4 -75 2 -75 6 0 8 -11 5 -25 -4 -21 1 -27 29 -40
25 -10 29 -15 14 -15 -14 -1 -16 -3 -5 -7 66 -23 100 -46 100 -69 0 -15 6 -24
15 -24 9 0 18 -12 22 -30 4 -21 11 -30 24 -30 11 0 19 -7 19 -16 0 -9 14 -21
30 -27 17 -6 30 -17 30 -24 0 -7 5 -13 10 -13 6 0 10 5 10 10 0 19 81 11 113
-12 20 -15 32 -18 35 -10 2 8 10 6 23 -6 15 -15 17 -26 11 -63 -7 -39 -11 -44
-36 -47 -25 -3 -28 -6 -22 -33 3 -16 17 -40 31 -53 14 -13 25 -28 25 -35 0 -6
6 -11 14 -11 8 0 16 -7 20 -15 3 -8 12 -15 20 -15 8 0 21 -7 29 -14 8 -8 26
-16 39 -18 14 -2 42 -16 62 -32 29 -21 43 -26 66 -21 23 5 30 3 30 -9 0 -9 7
-16 16 -16 27 0 156 -70 196 -106 21 -19 46 -34 57 -34 10 0 36 -7 56 -16 21
-9 66 -20 99 -25 65 -11 125 -29 167 -51 35 -18 129 -114 129 -132 0 -8 7 -21
15 -30 9 -9 11 -17 5 -21 -19 -12 -10 -33 30 -76 22 -24 40 -48 40 -54 0 -5 4
-4 8 3 9 13 42 6 42 -9 0 -5 12 -9 26 -9 14 0 34 -5 44 -10 11 -6 54 -11 97
-11 54 -1 83 -6 95 -17 20 -16 40 -17 141 -7 48 6 80 4 108 -5 36 -12 55 -11
162 10 67 12 142 25 167 26 45 4 349 12 446 13 28 0 71 9 98 21 26 11 56 20
67 20 11 0 41 10 67 22 52 25 159 28 174 5 6 -9 8 -9 8 1 0 6 7 12 15 12 7 0
18 6 22 13 12 19 61 35 112 35 23 1 54 8 67 17 32 21 102 19 152 -5 22 -11 55
-20 72 -20 19 0 30 -5 30 -15 0 -7 8 -19 18 -24 13 -8 8 -10 -25 -11 -24 0
-43 -4 -43 -10 0 -5 15 -10 34 -10 19 0 38 -5 41 -10 4 -6 12 -4 21 5 9 8 22
15 30 15 8 0 12 5 9 10 -3 6 1 10 9 10 9 0 16 -3 16 -7 0 -5 22 -8 49 -9 56
-1 81 -16 81 -49 0 -17 -11 -28 -42 -44 -40 -19 -149 -39 -173 -32 -5 2 -37 5
-70 7 -33 2 -73 6 -88 10 -15 3 -33 1 -40 -5 -7 -5 -22 -10 -32 -11 -11 0 -55
-2 -97 -3 -42 -1 -80 -6 -84 -10 -4 -4 -15 -1 -23 7 -13 12 -25 13 -56 5 -22
-6 -51 -13 -65 -16 -14 -3 -32 -11 -40 -18 -8 -7 -44 -16 -80 -20 -70 -7 -120
-22 -120 -36 0 -5 -9 -9 -19 -9 -10 0 -21 -7 -25 -15 -3 -8 -1 -15 4 -15 6 0
9 -3 9 -7 -5 -33 3 -43 35 -43 18 0 39 7 46 15 18 22 30 18 30 -10 0 -16 6
-25 15 -25 8 0 15 5 15 10 0 16 27 11 34 -6 9 -23 9 -23 -21 -21 -19 1 -28 -3
-31 -15 -3 -14 3 -18 25 -19 25 0 26 -1 8 -9 -33 -14 -45 -11 -46 13 0 21 -1
21 -9 2 -11 -27 7 -43 52 -48 20 -2 43 -9 51 -16 22 -17 114 -28 167 -19 8 1
50 -1 93 -6 72 -8 91 -16 67 -31 -6 -3 -10 0 -10 7 0 7 -7 0 -15 -16 -11 -22
-12 -31 -4 -37 8 -5 7 -8 -2 -12 -11 -4 -11 -6 1 -7 36 -3 147 -19 165 -23 11
-3 30 -6 43 -6 23 -1 32 -21 8 -21 -14 0 -31 -59 -20 -69 3 -3 13 4 21 17 18
25 33 29 33 7 0 -8 17 -19 40 -26 31 -10 40 -17 40 -35 0 -12 -6 -24 -14 -27
-9 -4 -12 -14 -9 -26 6 -22 23 -29 23 -9 0 9 3 9 12 0 7 -7 22 -12 35 -12 13
0 23 -6 23 -14 0 -8 6 -17 13 -19 6 -3 -3 -10 -20 -17 -18 -7 -33 -16 -33 -21
0 -5 -11 -9 -24 -9 -14 0 -26 -7 -29 -17 -2 -10 -8 -26 -12 -37 -7 -16 -6 -17
13 -7 18 10 22 9 22 -4 0 -8 -4 -15 -10 -15 -18 0 -11 -29 10 -40 22 -12 27
-36 8 -43 -20 -7 -5 -17 31 -21 69 -8 53 -30 -26 -35 -20 -1 -15 -21 4 -21 14
0 13 -3 -5 -20 -17 -16 -30 -19 -57 -14 -33 6 -35 5 -35 -20 0 -17 -5 -26 -16
-26 -11 0 -14 -6 -9 -20 13 -41 -2 -59 -53 -60 -108 -2 -178 -8 -194 -15 -9
-4 -22 -4 -29 0 -6 4 -14 3 -18 -3 -9 -15 -768 -39 -1776 -57 -126 -2 -356 -7
-510 -10 -154 -3 -415 -8 -580 -11 -187 -4 -305 -10 -313 -16 -7 -6 -47 -13
-90 -15 -42 -2 -88 -7 -102 -10 l-25 -6 30 -9 c17 -5 81 -9 143 -8 84 0 118
-3 134 -14 11 -8 27 -12 34 -9 8 3 14 1 14 -5 0 -14 -74 -22 -205 -21 -123 0
-524 -7 -925 -16 -146 -3 -476 -8 -735 -11 -390 -4 -899 -12 -940 -15 -5 0
-99 0 -208 1 -169 1 -199 3 -204 17 -9 24 16 32 95 32 101 -1 274 12 267 20
-8 7 -30 8 -322 10 -188 2 -224 5 -235 18 -11 14 -10 15 12 8 14 -4 52 -7 85
-5 101 4 149 3 183 -4 17 -4 61 -4 97 -1 51 6 65 11 65 24 0 10 3 12 8 5 4 -6
21 -12 37 -12 17 0 59 -1 95 -2 36 -1 74 -2 85 -1 18 1 19 2 3 12 -10 5 -18
19 -18 29 0 11 -4 20 -10 20 -5 0 -10 -7 -10 -15 0 -12 -7 -14 -27 -9 -37 9
-45 18 -12 12 26 -5 26 -3 22 34 l-6 38 76 0 c51 0 76 4 80 13 3 9 -20 11
-102 9 -101 -4 -131 -9 -103 -19 6 -3 12 -13 12 -24 0 -10 5 -19 10 -19 6 0
10 -4 10 -10 0 -5 -9 -10 -20 -10 -13 0 -20 7 -20 20 0 11 -4 20 -10 20 -14 0
-13 -33 2 -48 9 -9 8 -12 -5 -12 -9 0 -16 3 -16 8 1 4 0 18 -1 32 l-2 25 -8
-25 c-8 -24 -8 -24 -9 5 -1 17 6 41 15 53 14 20 14 23 -1 28 -27 11 -55 -25
-55 -70 0 -32 3 -38 11 -26 8 11 9 9 3 -10 -9 -34 -12 -36 -34 -22 -26 16 -33
15 -26 -3 3 -8 1 -15 -5 -15 -6 0 -9 8 -7 18 2 10 12 17 26 16 12 0 22 5 22
13 0 9 -13 13 -40 13 -22 0 -40 5 -40 10 0 6 18 10 40 10 30 0 40 4 40 16 0
22 -32 53 -38 36 -4 -14 -32 -16 -32 -2 0 5 -6 7 -13 4 -8 -3 -74 -9 -148 -13
-74 -5 -142 -12 -151 -16 -13 -5 -18 -3 -18 9 0 12 10 16 40 16 32 0 40 4 40
19 0 15 -11 19 -77 25 -42 3 -95 6 -119 6 -23 0 -44 4 -46 10 -1 5 -39 13 -82
17 -55 4 -77 3 -73 -4 5 -7 0 -9 -12 -6 -10 3 -22 0 -25 -6 -4 -6 -16 -11 -27
-11 -14 0 -19 7 -19 25 0 23 -4 25 -40 25 -29 0 -40 -4 -40 -15 0 -11 -11 -15
-40 -15 -38 0 -40 1 -41 33 l-1 32 -13 -35 c-11 -30 -14 -32 -20 -15 -21 61
-22 62 -30 22 -8 -40 -18 -52 -36 -41 -8 5 -6 10 5 16 20 11 21 38 2 38 -7 0
-19 -7 -26 -15 -7 -8 -18 -15 -25 -15 -8 0 -15 -6 -17 -12 -3 -7 -14 14 -24
46 -21 61 -51 93 -42 43 3 -14 1 -32 -3 -39 -7 -11 -9 -10 -9 1 0 19 -39 51
-62 51 -17 0 -18 -148 -18 -5134 l0 -5135 674 0 673 -1 134 34 c74 19 146 39
160 45 15 5 40 9 55 9 16 0 47 4 69 10 22 6 69 16 105 21 36 6 125 20 198 31
74 11 184 24 245 30 62 5 191 17 287 25 163 14 378 41 530 66 154 25 159 33
141 212 -7 67 -16 176 -21 242 -5 66 -14 152 -19 190 -6 39 -11 97 -11 130 0
33 -6 107 -14 165 -8 58 -22 166 -31 240 -9 74 -25 187 -36 250 -10 63 -19
140 -20 170 0 30 -3 49 -6 43 -2 -7 -11 -13 -18 -13 -16 0 -72 68 -100 121
-11 21 -31 57 -43 80 -15 25 -25 62 -26 93 -4 69 -24 135 -53 169 -13 16 -23
42 -23 60 0 18 -7 41 -15 51 -8 11 -15 41 -15 67 0 26 -4 50 -8 53 -5 3 -9 49
-11 103 -1 54 -6 145 -10 203 -5 58 -9 186 -10 285 0 99 -3 192 -6 206 -10 47
14 230 36 276 17 35 22 69 26 188 4 108 2 145 -7 145 -12 0 -5 56 10 75 5 6
10 39 13 75 5 73 -6 110 -88 275 -79 160 -151 338 -160 398 -3 20 -9 37 -13
37 -5 0 -14 28 -21 63 -8 34 -17 67 -21 72 -4 6 -10 26 -13 45 -2 19 -11 60
-20 90 -25 90 -36 191 -39 348 0 23 -5 42 -10 42 -6 0 -8 14 -5 33 3 17 0 110
-6 205 -10 157 -9 179 8 245 10 40 22 79 26 87 61 131 84 171 112 202 19 21
37 35 42 30 4 -4 5 -1 1 5 -9 16 34 75 51 69 8 -3 13 2 13 15 0 37 71 148 95
149 6 1 23 11 39 24 38 32 87 21 54 -12 -9 -9 -9 -12 -1 -12 7 0 14 -9 18 -19
3 -10 17 -21 30 -24 21 -3 25 0 25 19 0 32 14 30 26 -3 10 -25 11 -22 19 40 5
46 4 77 -4 93 -20 44 -14 54 27 54 20 -1 55 -8 77 -17 22 -8 50 -16 61 -17 13
0 19 -6 17 -14 -4 -8 0 -10 11 -6 9 3 16 1 16 -5 0 -20 28 -12 33 10 5 17 2
20 -14 16 -10 -3 -19 -2 -19 1 0 4 26 15 58 25 101 33 163 69 228 133 35 34
64 67 64 73 0 19 78 64 97 57 13 -5 12 -1 -6 18 -13 13 -20 29 -17 35 4 5 -2
15 -13 20 -29 16 -87 139 -106 227 -22 98 -33 417 -16 465 15 44 6 48 -18 8
l-21 -34 0 97 c0 87 2 98 20 108 19 10 20 8 20 -50 0 -33 3 -60 6 -60 7 0 67
33 74 41 3 3 14 9 25 14 18 8 17 9 -10 13 -56 7 -62 52 -10 71 31 11 39 10 60
-3 14 -9 25 -13 25 -9 0 5 -13 17 -29 28 -16 10 -27 23 -25 27 3 4 1 8 -5 8
-6 0 -25 15 -44 33 -18 17 -41 37 -51 42 -14 8 -15 17 -9 50 5 22 14 40 20 40
5 0 27 -15 49 -33 44 -38 68 -38 72 0 3 22 -8 38 -53 81 l-57 54 1 59 c1 66 5
102 13 124 3 8 12 38 19 65 6 28 15 55 20 60 4 6 18 37 32 71 24 61 81 134
104 134 7 0 13 5 13 10 0 6 5 10 11 10 6 0 33 11 61 25 69 34 174 36 203 3 12
-14 20 -18 23 -10 4 13 -90 124 -128 150 -52 35 -74 40 -115 26 -48 -16 -120
-84 -90 -84 10 0 32 12 48 28 15 15 39 27 53 27 13 1 24 0 24 -1 0 -2 -30 -40
-68 -86 -37 -46 -75 -95 -84 -109 -9 -14 -23 -32 -30 -40 -46 -47 -127 -224
-148 -325 -15 -68 -35 -100 -25 -39 4 22 11 55 17 74 8 25 7 35 -2 41 -10 6
-8 9 5 11 10 3 25 24 36 54 23 61 23 65 2 66 -14 0 -14 2 4 9 21 9 39 43 29
58 -8 13 -150 -8 -162 -24 -15 -18 -34 -18 -34 1 0 17 -16 20 -24 6 -4 -5 -4
-15 -1 -23 4 -10 25 -12 85 -10 52 2 80 0 80 -7 0 -7 -29 -11 -79 -11 -61 0
-80 -3 -85 -15 -3 -8 -17 -15 -31 -15 -14 0 -25 -4 -25 -10 0 -5 -18 -8 -43
-5 l-42 4 3 -45 c3 -27 0 -44 -7 -44 -6 0 -11 9 -11 20 0 23 -15 25 -47 7 -31
-17 -113 -10 -113 10 0 12 -7 14 -37 7 -21 -5 -75 -8 -120 -6 -57 1 -83 -1
-83 -9 0 -8 -22 -9 -76 -4 -57 5 -79 4 -84 -6 -6 -9 -17 -8 -49 4 -25 10 -42
13 -46 7 -9 -15 -41 -12 -55 5 -10 12 -10 18 0 30 9 10 9 15 1 15 -6 0 -11 18
-11 44 0 36 4 45 21 49 38 10 9 27 -47 27 -30 0 -54 5 -54 10 0 6 14 10 31 10
20 0 29 4 27 13 -3 6 -10 12 -16 11 -7 -1 -50 -2 -97 -2 -78 -2 -85 -4 -85
-22 0 -11 7 -23 15 -26 20 -8 9 -24 -16 -24 -10 0 -19 -7 -19 -15 0 -16 -35
-21 -45 -6 -4 8 -60 9 -60 1 0 -1 -18 -4 -40 -5 -22 -2 -98 -8 -170 -14 -166
-14 -416 -14 -395 -1 13 9 13 11 1 19 -12 8 -12 13 2 35 9 14 17 27 17 30 0 6
-91 1 -147 -9 -24 -4 -43 -4 -43 1 0 11 88 31 142 33 20 1 52 8 69 15 27 12
29 14 13 19 -28 8 -223 9 -269 2 -29 -5 -37 -4 -29 4 5 6 57 14 113 19 89 6
105 10 115 27 6 11 15 23 20 27 6 4 11 34 12 68 1 58 0 61 -20 56 -11 -3 -35
-6 -53 -6 -22 0 -33 -6 -36 -17 -4 -14 -5 -12 -6 5 -1 17 4 22 25 22 29 0 64
16 64 30 0 6 -11 10 -23 10 -25 0 -62 32 -50 43 9 10 10 77 1 77 -4 0 -8 9 -8
20 0 17 7 20 40 20 22 0 40 -4 40 -10 0 -5 18 -10 40 -10 63 0 47 -20 -17 -22
-40 -1 -47 -2 -23 -5 19 -3 54 -2 77 2 42 6 43 7 43 45 0 32 -4 39 -22 43 -16
3 -12 5 12 6 27 1 31 4 20 11 -13 8 -12 10 3 10 10 0 26 -7 34 -16 14 -14 37
-15 161 -11 94 4 147 9 152 17 5 8 9 7 13 -4 8 -20 46 -21 53 -1 5 11 10 12
25 2 17 -10 22 -9 33 6 14 18 32 23 38 9 4 -10 158 9 158 20 0 4 18 8 39 8 22
0 41 4 43 9 2 5 90 12 197 15 111 3 198 10 206 16 7 5 66 12 131 15 66 2 247
9 404 15 330 12 770 16 850 6 38 -4 50 -3 40 4 -12 8 -11 10 8 10 13 0 20 -4
17 -10 -3 -5 3 -10 14 -10 12 0 21 5 21 10 0 6 10 10 23 10 20 0 19 -2 -8 -16
-16 -9 -43 -16 -58 -15 -16 1 -43 -7 -60 -18 -18 -10 -58 -22 -91 -26 -32 -4
-77 -13 -100 -21 -58 -21 -223 -105 -246 -126 -11 -10 -24 -18 -30 -18 -5 0
-10 -5 -10 -11 0 -6 -13 -21 -28 -34 -36 -30 -67 -88 -59 -109 11 -28 78 -21
116 13 19 17 47 33 63 36 17 4 50 20 73 36 91 61 228 103 239 72 3 -7 9 -12
13 -11 4 1 18 -3 31 -10 12 -7 56 -15 98 -17 42 -2 79 -7 82 -10 3 -3 24 -5
46 -5 23 0 48 -6 58 -13 10 -8 41 -12 84 -10 44 2 70 -1 75 -9 6 -9 11 -9 23
1 28 23 19 48 -24 68 -22 10 -40 24 -40 31 0 16 -25 26 -42 16 -9 -6 -6 -10
12 -16 l25 -7 -24 2 c-39 3 -34 20 14 52 25 17 45 35 45 40 0 6 17 24 37 40
104 83 147 105 157 79 3 -8 12 -14 20 -14 8 0 29 -20 46 -46 27 -39 45 -68
108 -179 6 -11 61 -105 122 -208 60 -103 110 -192 110 -197 0 -6 5 -10 10 -10
6 0 10 -4 10 -10 0 -5 16 -34 35 -64 19 -30 35 -57 35 -59 0 -2 34 -75 75
-161 93 -192 100 -214 119 -351 27 -200 29 -259 11 -321 -13 -44 -19 -54 -26
-43 -8 10 -9 8 -4 -9 7 -25 -16 -110 -65 -242 -28 -75 -111 -261 -120 -270 -3
-3 -21 -38 -40 -78 -19 -40 -42 -80 -51 -88 -10 -9 -15 -22 -13 -29 3 -7 0
-16 -7 -21 -9 -5 -10 -2 -6 9 3 9 2 19 -4 23 -6 3 -7 19 -4 35 7 30 -3 37 -23
17 -9 -9 -12 -5 -11 18 0 16 3 23 6 17 5 -14 33 -18 33 -5 0 4 -5 13 -12 20
-14 14 -48 -2 -48 -24 0 -26 -32 -75 -78 -120 -23 -23 -42 -48 -42 -56 0 -7
-22 -22 -50 -33 -27 -11 -50 -23 -50 -27 0 -4 -7 -8 -15 -8 -8 0 -15 5 -15 10
0 6 -4 10 -10 10 -5 0 -10 -11 -10 -25 0 -22 -4 -25 -32 -24 -22 1 -26 3 -12
6 16 3 21 11 20 29 -1 28 -23 32 -41 7 -7 -10 -14 -12 -18 -6 -4 6 11 23 33
38 24 16 37 32 33 41 -3 8 -1 14 5 14 6 0 31 28 56 63 25 34 49 67 54 72 4 6
13 24 21 40 14 30 24 51 40 83 5 9 18 36 29 60 12 26 22 38 26 30 3 -7 4 5 1
27 -4 28 -3 36 4 25 5 -8 13 -11 17 -7 4 4 3 12 -3 18 -7 7 -5 22 8 49 10 21
23 60 29 86 15 75 33 128 46 139 7 6 17 36 24 68 8 38 16 57 26 57 10 0 13 7
8 24 -3 13 -1 56 5 97 10 78 2 169 -12 119 -3 -14 -2 -27 4 -31 8 -5 8 -13 0
-27 -6 -11 -11 -29 -11 -40 0 -11 -7 -23 -16 -26 -9 -4 -14 -13 -10 -21 3 -9
-3 -37 -14 -63 -20 -47 -20 -47 -18 -12 2 34 -18 80 -35 80 -4 0 -12 -11 -17
-25 -5 -14 -14 -25 -19 -25 -12 0 2 -53 16 -57 6 -2 14 11 17 29 7 31 8 32 16
11 13 -33 20 -102 11 -107 -4 -3 -13 -31 -20 -63 -11 -55 -27 -112 -51 -195
-6 -21 -16 -40 -21 -43 -5 -4 -9 -14 -9 -23 0 -9 -26 -75 -57 -147 -55 -125
-60 -133 -148 -220 -94 -94 -134 -126 -172 -137 -22 -6 -22 -6 -5 17 9 12 30
30 46 39 33 19 29 34 -5 15 -24 -12 -25 -13 -79 -56 -19 -16 -46 -34 -60 -41
-41 -21 -170 -149 -170 -169 0 -11 9 -29 20 -41 11 -12 20 -25 20 -30 0 -5 11
-14 24 -21 13 -7 23 -20 22 -29 0 -9 8 -18 19 -20 15 -2 17 -1 6 6 -9 7 -10
11 -2 17 22 13 74 -54 64 -82 -3 -7 2 -13 11 -13 9 0 16 5 16 10 0 14 20 13
53 -2 19 -9 27 -21 27 -39 0 -25 -2 -26 -35 -19 -19 4 -41 15 -50 24 -9 9 -21
16 -27 16 -6 0 -17 8 -24 18 -11 14 -15 15 -23 3 -8 -12 -14 -12 -40 -2 -26
11 -33 11 -46 -2 -8 -9 -15 -23 -15 -31 0 -9 -13 -22 -29 -31 -17 -8 -33 -20
-37 -26 -4 -8 -3 -9 4 -5 7 4 12 3 12 -3 0 -5 -4 -13 -10 -16 -6 -3 -10 -12
-9 -18 0 -9 2 -9 6 1 2 6 9 12 15 12 6 0 8 -6 5 -14 -3 -8 1 -17 10 -20 11 -4
14 -2 9 9 -4 12 2 15 32 14 22 -1 28 -3 15 -6 -14 -3 -21 -11 -20 -24 2 -22
33 -33 77 -27 34 5 36 0 46 -74 4 -29 8 -58 8 -65 1 -7 5 -16 9 -19 4 -4 8
-39 9 -78 l2 -71 3 64 c2 35 11 73 19 85 15 22 15 24 15 -194 0 -83 -30 -502
-36 -509 -3 -2 -3 49 -1 115 l5 119 -14 -140 c-8 -77 -14 -225 -13 -330 0
-104 -3 -220 -7 -257 l-7 -68 -84 0 c-46 0 -84 -3 -84 -8 0 -4 -21 -5 -46 -3
-32 2 -44 0 -40 -8 4 -6 16 -11 26 -11 23 0 39 -26 33 -51 -6 -22 -40 -25 -65
-6 -22 17 -33 63 -18 72 7 5 -5 15 -32 27 -59 26 -75 48 -164 228 -17 36 -39
72 -48 79 -9 8 -32 42 -51 75 -19 34 -65 98 -102 143 -37 45 -84 103 -103 128
-19 25 -42 45 -50 45 -10 0 -6 -8 13 -25 15 -14 27 -30 27 -35 0 -5 25 -38 55
-74 30 -35 55 -67 55 -71 0 -3 5 -11 10 -18 35 -41 140 -192 140 -201 0 -11
10 -32 48 -99 12 -21 22 -48 22 -60 0 -12 7 -33 14 -47 8 -14 22 -39 31 -56 8
-17 33 -47 55 -68 22 -21 40 -43 40 -49 0 -6 9 -20 19 -31 11 -12 41 -61 67
-111 25 -49 57 -98 71 -108 13 -10 38 -46 56 -79 49 -92 53 -98 85 -128 17
-15 40 -45 52 -66 11 -21 39 -66 61 -99 21 -33 42 -67 45 -75 10 -25 23 -54
33 -70 40 -65 70 -168 71 -242 0 -26 4 -50 10 -53 24 -15 70 -136 85 -221 12
-72 13 -107 5 -163 -7 -49 -7 -101 0 -159 17 -147 11 -267 -13 -259 -6 2 -25
32 -43 66 -18 35 -37 68 -42 73 -9 9 17 -109 31 -142 3 -8 18 -51 33 -95 14
-44 36 -107 49 -140 12 -33 31 -89 40 -125 29 -105 48 -164 55 -175 7 -9 31
-92 50 -175 11 -44 45 -160 53 -180 16 -40 60 -172 76 -230 18 -62 116 -343
126 -360 3 -5 20 -50 39 -102 92 -254 185 -472 221 -518 22 -28 210 -388 237
-455 9 -22 24 -58 33 -80 20 -48 50 -140 59 -178 l6 -27 1575 0 1575 0 0 4945
0 4945 -42 1 c-24 0 -62 3 -86 5 -24 3 -49 1 -56 -5 -7 -6 -50 -10 -97 -9 -46
0 -123 -3 -171 -7 -55 -5 -88 -4 -88 2 0 5 -32 9 -72 9 -40 -1 -81 3 -90 9
-13 7 -27 5 -51 -8 -26 -14 -39 -16 -60 -8 -34 13 -128 6 -157 -11 -18 -10
-24 -10 -27 0 -3 7 -23 12 -51 12 -30 0 -42 -3 -33 -9 25 -16 -4 -19 -47 -4
-39 13 -46 13 -60 0 -12 -11 -30 -14 -64 -10 -30 4 -53 1 -62 -6 -11 -9 -16
-9 -21 0 -6 8 -10 8 -15 -2 -7 -10 -16 -10 -50 0 -37 11 -43 10 -54 -4 -9 -13
-20 -15 -51 -9 -37 7 -38 8 -17 17 28 13 28 25 2 29 -28 4 -21 24 7 20 12 -1
24 2 28 8 4 6 -5 10 -22 10 -21 0 -25 3 -13 10 8 5 25 7 38 3 13 -3 34 0 47 7
17 9 41 10 101 2 49 -7 80 -7 82 -2 2 6 10 4 17 -4 28 -27 133 -15 157 19 4 6
67 10 150 10 197 1 745 14 846 21 l82 6 0 1659 c0 1652 0 1659 -20 1659 -11 0
-20 7 -20 15 0 8 9 15 20 15 19 0 20 6 19 60 -2 50 -5 60 -20 60 -9 0 -19 5
-21 11 -2 6 -11 7 -22 3 -18 -7 -17 -8 5 -18 22 -9 20 -11 -21 -14 -32 -2 -47
1 -56 12 -6 9 -14 16 -18 16 -12 0 -46 -40 -46 -54 0 -7 -9 -16 -20 -19 -11
-3 -25 -18 -30 -34 -27 -72 -35 -84 -52 -79 -10 2 -18 0 -18 -5 0 -5 -5 -9
-11 -9 -5 0 -8 4 -5 9 9 14 -20 21 -88 21 -48 0 -67 -4 -84 -20 -12 -11 -25
-20 -30 -20 -12 0 -42 -34 -42 -48 0 -7 7 -12 17 -12 29 0 3 -15 -29 -16 -30
-2 -78 -21 -89 -38 -4 -4 -18 0 -32 9 -15 9 -31 14 -37 10 -6 -3 -10 3 -10 14
0 12 -7 21 -15 21 -8 0 -15 5 -15 10 0 6 -11 16 -25 22 -16 7 -25 19 -25 33 0
23 28 55 48 55 8 0 12 21 12 60 0 58 1 60 26 60 36 0 29 34 -9 38 -37 4 -37
37 1 46 52 12 82 28 82 44 0 8 3 12 6 9 11 -11 44 13 54 38 6 17 22 27 50 35
27 7 54 25 78 52 41 45 71 61 89 46 23 -18 40 -2 35 32 -3 23 -1 31 7 26 6 -4
11 -16 11 -27 0 -10 7 -19 15 -19 9 0 15 9 15 21 0 12 8 23 20 26 11 3 20 12
20 19 0 8 5 14 10 14 6 0 10 18 10 39 0 23 5 41 13 44 9 3 9 7 -1 20 -11 13
-11 19 0 36 7 12 21 21 30 21 26 0 22 18 -12 51 l-30 30 21 28 c11 15 22 36
23 47 2 10 12 20 24 22 11 2 28 14 36 28 9 13 23 24 30 24 17 0 42 46 51 92 6
32 5 32 -10 13 l-17 -20 4 20 c3 15 10 19 31 17 22 -2 27 1 27 18 0 12 -4 18
-10 15 -23 -14 -8 12 20 35 28 23 30 29 30 97 0 71 -1 73 -24 73 -46 0 -39 31
9 43 11 2 -2 5 -28 6 -29 1 -46 5 -42 11 3 6 15 10 26 10 23 0 25 15 4 24 -18
7 -20 33 -2 39 9 3 8 9 -5 22 -15 17 -17 17 -29 -3 -10 -16 -16 -18 -30 -9
-21 13 -76 -8 -81 -31 -3 -14 -5 -14 -20 2 -17 16 -19 16 -45 -8 -15 -15 -31
-26 -35 -26 -5 0 -8 -7 -8 -15 0 -8 -6 -15 -13 -15 -16 0 -37 -56 -37 -98 0
-21 -5 -32 -14 -32 -8 0 -22 -7 -31 -16 -13 -14 -20 -14 -45 -4 -18 7 -30 20
-30 31 0 10 -9 21 -21 24 -19 6 -19 8 -4 31 9 13 11 24 5 24 -6 0 -14 -8 -17
-17 -4 -10 -15 -27 -25 -38 -16 -16 -22 -17 -38 -7 -11 7 -28 12 -38 12 -9 0
-25 9 -34 19 -13 15 -25 19 -51 14 -29 -4 -35 -2 -41 18 l-8 24 -7 -25 -7 -25
-15 23 c-7 12 -24 22 -36 22 -13 0 -23 5 -23 10 0 6 5 10 10 10 16 0 -12 38
-32 43 -12 3 -16 11 -12 21 4 11 1 16 -10 16 -10 0 -15 -7 -13 -21 3 -30 -21
-36 -25 -7 -3 21 -7 23 -56 20 -42 -2 -52 0 -46 10 5 10 4 10 -6 1 -9 -9 -22
-6 -56 13 -52 29 -74 31 -74 4 0 -11 -4 -20 -8 -20 -11 0 -36 51 -33 68 1 7
-10 12 -29 12 -23 0 -30 4 -30 20 0 14 -9 21 -33 25 -19 4 -40 5 -48 4 -20 -4
-59 10 -59 22 0 5 -14 9 -31 9 -17 0 -28 -4 -24 -10 3 -5 17 -10 31 -10 15 0
24 -6 24 -16 0 -12 -5 -14 -17 -8 -10 4 -35 9 -55 12 -36 4 -38 6 -38 38 0 24
5 34 15 34 18 0 19 12 3 28 -9 9 -9 12 0 12 7 0 12 11 12 25 0 14 11 43 25 65
14 22 25 45 25 52 0 34 25 75 54 88 17 8 39 24 49 37 12 15 29 23 49 23 16 0
46 8 65 17 30 14 40 15 67 4 17 -8 42 -15 56 -17 14 -2 44 -8 68 -14 24 -6 48
-8 53 -5 14 9 51 -5 46 -18 -4 -14 21 -36 42 -37 8 0 21 -7 30 -15 30 -30 76
-65 84 -65 4 0 7 -11 7 -25 0 -14 4 -25 9 -25 4 0 24 -19 42 -43 26 -32 40
-42 59 -40 14 1 19 0 12 -3 -6 -3 -10 -10 -6 -15 8 -14 44 -11 44 4 0 9 3 8 9
-2 6 -9 11 -10 15 -2 10 16 26 14 26 -4 0 -8 5 -15 10 -15 6 0 10 7 10 15 0
20 14 19 31 -1 11 -13 26 -15 76 -11 51 5 63 3 63 -9 0 -19 6 -18 30 6 13 13
16 21 8 26 -7 5 -3 11 12 16 16 6 26 5 32 -4 6 -9 7 -5 3 10 -5 19 -2 22 19
22 14 0 28 5 31 10 10 16 89 12 111 -6 16 -13 16 -15 2 -10 -10 3 -20 1 -24
-5 -3 -6 -12 -8 -19 -5 -27 10 -24 -36 3 -63 l27 -26 3 23 c2 14 10 22 22 22
16 0 18 -5 14 -30 -6 -27 -4 -30 20 -30 28 0 34 18 14 38 -9 9 -9 15 0 24 9 9
12 7 12 -11 0 -16 5 -22 18 -19 16 3 17 38 20 546 l2 542 -4500 0 -4500 0 0
-672z m8400 -338 c0 -5 -5 -10 -11 -10 -5 0 -7 5 -4 10 3 6 8 10 11 10 2 0 4
-4 4 -10z m-2140 -112 c0 -31 4 -41 20 -45 24 -6 27 -38 4 -47 -21 -8 -40 4
-23 15 7 4 10 11 7 14 -4 4 -11 4 -17 0 -39 -24 36 -83 83 -65 14 5 30 18 36
29 6 12 22 24 35 27 14 3 38 21 55 40 16 19 34 34 40 34 5 0 10 6 10 14 0 24
20 29 35 10 10 -14 10 -21 2 -26 -7 -4 5 -5 25 -1 34 5 38 3 44 -21 3 -14 4
-32 1 -40 -9 -22 12 -88 25 -80 7 5 9 2 5 -8 -4 -12 -1 -14 14 -11 10 3 19 3
19 0 0 -14 -26 -63 -42 -79 -28 -28 -22 -53 17 -77 15 -9 16 -11 3 -7 -12 3
-18 0 -18 -9 0 -8 7 -15 15 -15 8 0 17 -11 21 -25 4 -15 16 -28 29 -31 12 -3
30 -20 40 -37 l17 -32 96 0 c135 1 133 2 125 -50 -5 -38 -2 -47 19 -67 22 -20
25 -31 24 -83 -1 -46 -7 -68 -26 -93 -13 -17 -30 -32 -37 -32 -7 0 -13 -5 -13
-11 0 -20 -40 -68 -53 -63 -11 4 -40 -46 -42 -71 -2 -37 -18 -95 -26 -95 -5 0
-9 -9 -9 -20 0 -11 -4 -20 -10 -20 -5 0 -10 -10 -11 -22 l0 -23 -11 23 c-6 12
-15 22 -20 22 -8 0 -9 -2 -13 -38 -1 -12 -10 -31 -20 -42 -9 -10 -14 -24 -10
-29 3 -6 -2 -11 -13 -11 -20 0 -72 -86 -72 -120 0 -11 -12 -24 -30 -32 -21 -9
-30 -20 -30 -35 0 -16 -6 -23 -20 -23 -23 0 -40 -28 -40 -64 0 -35 -14 -33
-32 5 -13 26 -16 28 -22 12 -4 -10 -2 -19 3 -21 6 -2 11 -12 11 -23 0 -17 -3
-18 -21 -9 -11 7 -27 9 -35 6 -16 -6 -47 19 -57 47 -5 12 -17 17 -47 17 l-42
0 3 -45 c4 -60 -6 -68 -77 -61 -33 4 -74 7 -92 7 -22 0 -32 5 -29 12 7 17
-122 15 -133 -2 -5 -10 -9 -10 -15 -1 -4 7 -18 9 -37 5 -22 -5 -33 -2 -43 11
-12 17 -17 17 -47 6 -19 -6 -42 -12 -51 -12 -10 0 -17 -8 -17 -19 0 -21 -22
-33 -45 -25 -18 7 -21 64 -3 64 9 0 9 3 0 12 -7 7 -12 20 -12 29 0 10 -6 20
-12 22 -10 4 -9 8 2 16 12 8 10 14 -13 35 -16 14 -34 26 -41 26 -8 0 -19 7
-26 15 -7 8 -28 19 -47 24 -41 12 -78 -1 -109 -38 -18 -21 -24 -23 -37 -13 -8
7 -19 12 -23 11 -5 -1 -30 -1 -56 0 l-47 1 6 31 c6 30 5 31 -16 20 -11 -7 -21
-21 -21 -31 0 -11 -4 -20 -10 -20 -12 0 -30 33 -30 56 0 14 3 15 12 6 16 -16
28 -15 28 3 0 8 -7 15 -15 15 -8 0 -12 6 -9 13 2 7 -2 26 -9 41 -12 22 -16 24
-21 11 -3 -9 -6 -28 -6 -41 0 -39 -18 -28 -25 16 -7 42 -20 52 -28 23 -4 -14
-5 -13 -6 4 -1 16 -6 21 -16 17 -9 -4 -15 0 -15 9 0 8 7 18 16 21 10 4 14 14
11 26 -4 16 0 20 18 20 34 0 52 62 27 91 -9 10 -22 19 -29 19 -16 0 -17 22 -2
37 8 8 -3 9 -38 5 -26 -2 -50 -8 -53 -11 -3 -3 -22 -6 -42 -6 -21 0 -38 -3
-38 -7 0 -5 -9 -8 -20 -8 -11 0 -20 7 -20 15 0 8 9 15 19 15 11 0 22 4 25 9 4
5 -2 7 -11 5 -10 -3 -26 1 -37 9 -17 12 -17 18 -6 52 7 20 10 54 7 75 -3 21 0
43 5 48 17 17 -13 52 -44 52 -18 0 -28 5 -28 15 0 7 -7 18 -17 23 -10 6 -14
16 -10 26 5 14 11 15 27 6 30 -16 53 8 34 35 -8 10 -13 28 -13 39 1 17 2 18 6
4 2 -10 9 -18 14 -18 6 0 8 -4 4 -9 -7 -12 51 -41 79 -40 13 0 39 21 66 55 35
42 50 54 68 50 19 -3 24 2 29 26 3 18 15 34 29 40 13 6 24 19 24 29 0 10 7 24
15 33 8 8 15 20 15 27 0 8 5 8 16 -2 9 -8 22 -14 28 -15 6 0 22 -2 36 -3 19
-1 30 -12 43 -41 12 -26 23 -37 30 -33 16 10 101 13 107 3 3 -4 16 -10 30 -11
20 -3 26 1 28 19 4 24 17 29 28 11 4 -7 9 -8 17 0 5 5 29 8 51 5 38 -4 43 -2
61 27 25 40 70 67 113 68 18 1 35 7 38 15 3 8 19 19 36 25 16 6 27 15 24 20
-4 5 -2 13 4 16 6 4 8 16 4 28 -3 12 -3 19 1 14 5 -4 16 0 26 9 10 9 36 17 59
18 40 2 65 20 53 39 -4 6 6 7 23 4 16 -3 23 -4 16 -1 -20 9 5 33 27 27 14 -4
21 5 31 42 9 32 16 43 23 36 18 -18 29 -13 26 12 -2 12 5 41 16 64 14 33 22
40 32 32 7 -7 13 -29 13 -51z m2624 -174 c4 -10 1 -14 -6 -12 -15 5 -23 28
-10 28 5 0 13 -7 16 -16z m-384 -213 c0 -15 -9 -14 -26 4 -9 8 -12 19 -9 25 7
11 35 -12 35 -29z m-1721 -50 c-15 -5 -22 6 -14 19 6 9 10 9 16 -1 5 -8 4 -15
-2 -18z m1791 4 c0 -8 -4 -15 -9 -15 -13 0 -22 16 -14 24 11 11 23 6 23 -9z
m117 -32 c4 -10 -32 -27 -49 -24 -4 0 -12 -8 -18 -19 -14 -26 -30 -26 -30 1 0
39 16 54 56 53 21 -1 40 -6 41 -11z m-3750 -89 c-3 -3 -12 -4 -19 -1 -8 3 -5
6 6 6 11 1 17 -2 13 -5z m3683 -14 c0 -5 -2 -10 -4 -10 -3 0 -8 5 -11 10 -3 6
-1 10 4 10 6 0 11 -4 11 -10z m-3743 -182 c-3 -8 -6 -5 -6 6 -1 11 2 17 5 13
3 -3 4 -12 1 -19z m-50 -44 c-3 -3 -12 -4 -19 -1 -8 3 -5 6 6 6 11 1 17 -2 13
-5z m3780 -46 c33 -12 46 -38 19 -38 -7 0 -16 -9 -19 -20 -5 -20 -47 -29 -47
-10 0 6 -7 10 -16 10 -17 0 -11 32 10 56 14 16 13 16 53 2z m-317 -38 c0 -5
-7 -10 -15 -10 -8 0 -15 5 -15 10 0 6 7 10 15 10 8 0 15 -4 15 -10z m270 -55
c0 -16 -17 -19 -44 -9 -26 10 -18 24 14 24 20 0 30 -5 30 -15z m-305 -15 c3
-5 1 -10 -4 -10 -6 0 -11 5 -11 10 0 6 2 10 4 10 3 0 8 -4 11 -10z m145 -36
c0 -14 -4 -23 -10 -19 -5 3 -10 15 -10 26 0 10 5 19 10 19 6 0 10 -12 10 -26z
m-120 6 c25 16 28 12 26 -33 -2 -41 -25 -107 -37 -107 -12 0 -22 -53 -20 -105
2 -59 -13 -91 -24 -54 -5 14 -3 25 4 27 6 2 11 10 11 18 0 12 -4 12 -20 2 -16
-10 -24 -10 -40 0 -16 10 -20 10 -20 -2 0 -8 6 -16 12 -18 10 -4 10 -10 1 -31
-9 -19 -17 -24 -32 -20 -17 4 -22 -2 -31 -39 l-12 -45 -49 5 c-29 3 -49 0 -49
-5 0 -6 -25 -10 -56 -9 -48 0 -55 3 -51 18 6 22 -6 23 -23 3 -7 -8 -16 -15
-21 -15 -5 0 -9 7 -9 15 0 32 -19 13 -22 -22 -4 -52 -28 -56 -28 -5 0 22 5 42
12 44 7 3 8 10 4 17 -6 9 -13 8 -27 -8 -10 -11 -19 -25 -19 -31 0 -15 -12 -12
-38 10 -19 16 -22 27 -20 75 1 31 5 58 8 60 4 2 18 -7 33 -21 14 -13 38 -24
52 -24 16 0 25 -6 25 -15 0 -8 5 -15 10 -15 6 0 10 7 10 15 0 11 11 15 40 15
22 0 49 5 59 12 11 6 26 8 37 3 18 -7 18 -8 2 -12 -29 -7 -20 -30 13 -37 55
-11 89 -7 89 9 0 11 -11 15 -40 15 -29 0 -40 4 -40 15 0 13 3 13 20 3 22 -14
55 -1 55 22 0 23 -33 36 -55 22 -11 -6 -38 -12 -60 -12 -33 0 -40 3 -40 20 0
17 -7 20 -40 20 -22 0 -40 -4 -40 -10 0 -12 -67 -12 -95 0 -17 7 -17 9 -2 9
20 1 21 4 5 48 -9 26 -9 36 0 45 9 9 12 5 12 -17 0 -57 10 -75 41 -75 17 0 29
5 29 13 0 20 82 8 98 -14 14 -20 47 -25 57 -9 3 6 16 10 29 10 16 0 25 9 34
33 7 19 20 41 30 50 9 8 30 27 45 41 15 14 32 26 37 26 4 0 6 8 3 18 -3 13 7
23 39 38 24 11 48 17 53 13 6 -4 17 -4 25 1z m61 -33 c-8 -8 -11 -7 -11 4 0
20 13 34 18 19 3 -7 -1 -17 -7 -23z m-654 -79 c-3 -8 -6 -5 -6 6 -1 11 2 17 5
13 3 -3 4 -12 1 -19z m313 -18 c0 -5 -7 -10 -16 -10 -8 0 -12 5 -9 10 3 6 10
10 16 10 5 0 9 -4 9 -10z m-315 -10 c3 -6 -1 -7 -9 -4 -18 7 -21 14 -7 14 6 0
13 -4 16 -10z m623 -12 c-6 -18 -28 -21 -28 -4 0 9 7 16 16 16 9 0 14 -5 12
-12z m-628 -158 c0 -5 -2 -10 -4 -10 -3 0 -8 5 -11 10 -3 6 -1 10 4 10 6 0 11
-4 11 -10z m-2480 -234 c0 -10 -5 -13 -17 -9 -11 4 -23 -3 -38 -21 l-21 -27
-15 28 c-8 15 -18 31 -22 34 -13 9 4 59 20 59 10 0 12 6 7 22 -4 15 7 9 40
-24 25 -25 46 -53 46 -62z m20 80 c0 -3 -4 -8 -10 -11 -5 -3 -10 -1 -10 4 0 6
5 11 10 11 6 0 10 -2 10 -4z m-4220 -27 c0 -5 -9 -9 -20 -9 -22 0 -27 16 -7
23 15 5 27 -1 27 -14z m5774 -86 c-44 -32 -84 9 -48 48 18 19 18 19 41 -8 23
-26 23 -28 7 -40z m-175 30 c2 -2 -5 -3 -17 -3 -14 0 -22 6 -22 16 0 14 3 15
18 3 9 -7 19 -15 21 -16z m-4389 -168 c0 -8 -4 -15 -9 -15 -13 0 -22 16 -14
24 11 11 23 6 23 -9z m-510 -65 c0 -5 -2 -10 -4 -10 -3 0 -8 5 -11 10 -3 6 -1
10 4 10 6 0 11 -4 11 -10z m140 -10 c0 -12 -37 -12 -65 0 -15 7 -10 9 23 9 23
1 42 -3 42 -9z m100 -30 c0 -5 -4 -10 -10 -10 -5 0 -10 5 -10 10 0 6 5 10 10
10 6 0 10 -4 10 -10z m5743 -1650 c-3 -11 -9 -20 -14 -20 -10 0 -12 24 -2 33
13 13 21 7 16 -13z m-3 -1261 c0 -5 -4 -9 -8 -9 -5 0 -9 7 -9 15 0 8 4 12 9 9
4 -3 8 -9 8 -15z m-7227 -34 c-3 -13 -53 -20 -53 -7 0 15 13 23 35 20 11 -2
19 -7 18 -13z m7184 -31 c-3 -3 -12 -4 -19 -1 -8 3 -5 6 6 6 11 1 17 -2 13 -5z
m-6677 -88 c0 -19 -4 -23 -20 -19 -16 4 -19 2 -14 -12 5 -13 3 -16 -7 -13 -8
3 -13 12 -11 20 1 9 -6 19 -15 24 -14 6 -9 9 22 14 22 4 41 8 43 9 1 0 2 -10
2 -23z m190 -24 c-8 -3 -20 -12 -26 -21 -10 -12 -16 -13 -35 -3 l-24 12 28 -3
c27 -4 38 8 15 16 -7 2 3 4 22 4 19 1 28 -2 20 -5z m45 -3 c11 -17 -1 -21 -15
-4 -8 9 -8 15 -2 15 6 0 14 -5 17 -11z m-385 -9 c-19 -13 -30 -13 -30 0 0 6
10 10 23 10 18 0 19 -2 7 -10z m4538 -7 c-10 -2 -26 -2 -35 0 -10 3 -2 5 17 5
19 0 27 -2 18 -5z m2455 -20 c-7 -2 -19 -2 -25 0 -7 3 -2 5 12 5 14 0 19 -2
13 -5z m77 3 c0 -8 -51 -13 -56 -5 -3 5 9 9 25 9 17 0 31 -2 31 -4z m-556 -33
c9 -23 -8 -37 -25 -21 -19 18 -46 20 -96 7 -29 -8 -46 -8 -60 0 -16 9 -14 11
12 11 38 2 65 7 73 14 3 3 24 6 48 6 30 0 44 -5 48 -17z m-259 -3 c3 -5 2 -10
-4 -10 -5 0 -13 5 -16 10 -3 6 -2 10 4 10 5 0 13 -4 16 -10z m368 3 c-7 -2
-19 -2 -25 0 -7 3 -2 5 12 5 14 0 19 -2 13 -5z m-753 -13 c0 -5 -5 -10 -11
-10 -5 0 -7 5 -4 10 3 6 8 10 11 10 2 0 4 -4 4 -10z m240 -10 c0 -5 -9 -10
-21 -10 -11 0 -17 5 -14 10 3 6 13 10 21 10 8 0 14 -4 14 -10z m520 -14 c0
-10 -15 -13 -55 -12 -38 0 -55 4 -55 13 0 9 17 13 55 13 40 0 55 -4 55 -14z
m-442 -11 c1 -1 0 -10 -4 -19 -7 -18 -59 -22 -84 -6 -13 8 -11 11 8 16 12 4
22 10 22 15 0 8 47 2 58 -6z m72 5 c0 -5 -4 -10 -9 -10 -6 0 -13 5 -16 10 -3
6 1 10 9 10 9 0 16 -4 16 -10z m-327 -18 c28 -19 27 -32 -2 -32 -14 0 -14 2
-1 11 11 8 7 9 -17 5 -18 -3 -35 -1 -38 4 -3 6 4 11 17 11 16 1 12 4 -12 9
-35 7 -35 7 -5 9 17 0 42 -7 58 -17z m424 3 c1 -5 -9 -9 -23 -8 -13 1 -24 -4
-24 -10 0 -7 -4 -6 -9 3 -6 8 -8 17 -6 20 6 10 60 6 62 -5z m-6275 -25 c20 0
41 7 48 15 7 8 16 15 21 15 5 0 9 -7 9 -15 0 -8 8 -16 18 -17 29 -3 -257 -16
-378 -17 -68 0 -109 3 -101 8 7 5 33 8 56 7 24 -1 41 2 39 6 -6 10 -1 10 118
13 54 0 101 5 105 9 4 4 13 0 19 -8 6 -9 26 -16 46 -16z m-12 20 c0 -5 -5 -10
-11 -10 -5 0 -7 5 -4 10 3 6 8 10 11 10 2 0 4 -4 4 -10z m5403 -10 c-3 -11
-12 -20 -19 -20 -17 0 -18 7 -1 25 17 20 26 18 20 -5z m257 16 c0 -11 -19 -15
-25 -6 -3 5 1 10 9 10 9 0 16 -2 16 -4z m290 -6 c0 -5 -4 -10 -9 -10 -6 0 -13
5 -16 10 -3 6 1 10 9 10 9 0 16 -4 16 -10z m-350 -10 c0 -5 -5 -10 -11 -10 -5
0 -7 5 -4 10 3 6 8 10 11 10 2 0 4 -4 4 -10z m-507 -7 c-7 -2 -21 -2 -30 0
-10 3 -4 5 12 5 17 0 24 -2 18 -5z m1314 -1 c6 -4 -11 -7 -38 -7 -27 0 -49 3
-49 8 0 9 71 9 87 -1z m-6814 -19 c-13 -2 -35 -2 -50 0 -16 2 -5 4 22 4 28 0
40 -2 28 -4z m6404 1 c-3 -3 -12 -4 -19 -1 -8 3 -5 6 6 6 11 1 17 -2 13 -5z
m-995 -89 c2 -5 -7 -11 -19 -13 -13 -2 -23 2 -23 8 0 8 -19 10 -67 5 -38 -4
-120 -7 -183 -7 -63 0 -119 -3 -125 -8 -5 -5 -25 -7 -43 -6 -17 1 -32 -1 -32
-6 0 -4 -21 -7 -47 -7 -43 1 -45 2 -18 9 23 6 15 8 -37 9 -45 1 -68 -3 -71
-11 -3 -10 -9 -10 -28 -1 -13 7 -33 14 -44 16 -11 3 9 6 45 7 36 1 112 5 170
9 169 10 520 7 522 -4z m-1082 -25 c0 -5 -5 -10 -11 -10 -5 0 -7 5 -4 10 3 6
8 10 11 10 2 0 4 -4 4 -10z m90 0 c-18 -12 -83 -13 -76 -2 2 4 24 8 48 9 30 2
38 -1 28 -7z m-290 -15 c-10 -12 -16 -13 -26 -4 -20 16 -18 19 12 19 22 0 25
-2 14 -15z m88 8 c-10 -2 -28 -2 -40 0 -13 2 -5 4 17 4 22 1 32 -1 23 -4z
m-501 -11 c-15 -2 -25 -7 -22 -12 2 -4 -32 -8 -76 -8 -54 0 -84 -4 -89 -12 -4
-7 -13 -9 -20 -5 -18 11 -112 16 -124 6 -6 -5 -239 -12 -518 -15 -279 -3 -576
-8 -660 -11 -100 -3 -146 -2 -133 4 19 9 19 10 -2 10 -13 1 -23 -3 -23 -9 0
-13 -27 -13 -32 0 -4 14 -211 14 -237 0 -12 -6 -26 -8 -32 -4 -14 8 -205 8
-252 -1 -25 -5 -42 -3 -53 6 -13 10 -17 10 -23 0 -6 -9 -36 -12 -112 -10 -57
1 -134 -1 -170 -4 -57 -5 -67 -3 -77 14 -11 18 -9 19 30 20 24 0 135 2 248 5
412 8 666 12 1170 19 283 4 516 8 517 9 1 1 163 2 360 2 197 0 346 -2 330 -4z
m131 1 c-16 -2 -40 -2 -55 0 -16 2 -3 4 27 4 30 0 43 -2 28 -4z m2610 -28 c17
-2 32 0 32 6 0 5 5 9 10 9 21 0 8 -16 -29 -37 -34 -20 -41 -21 -51 -8 -7 8
-22 14 -34 14 -20 -2 -20 -2 2 -6 12 -2 22 -8 22 -13 0 -5 -7 -7 -15 -4 -9 4
-68 3 -131 -1 -109 -7 -115 -8 -111 -27 5 -19 1 -20 -86 -17 -51 2 -98 0 -104
-4 -7 -5 -13 -4 -13 1 0 5 -11 14 -25 20 -20 9 -27 8 -40 -5 -13 -13 -43 -16
-150 -18 -73 -1 -137 -5 -143 -9 -6 -3 -12 0 -14 6 -4 10 -15 10 -54 -1 -27
-8 -56 -14 -64 -14 -122 3 -144 2 -155 -6 -16 -13 -85 -21 -85 -10 0 5 -25 9
-55 9 -30 0 -55 5 -55 10 0 6 -21 9 -47 9 -48 -2 -48 -2 -10 -8 21 -3 39 -9
40 -13 1 -5 -14 -16 -33 -26 -29 -16 -46 -18 -99 -11 -41 4 -73 3 -88 -4 -24
-11 -25 -10 -109 30 -34 16 -58 10 -84 -21 -20 -25 -55 -20 -70 10 -12 21 -19
25 -43 20 -16 -3 -38 -6 -48 -6 -11 0 -19 -6 -19 -14 0 -11 -15 -13 -65 -11
-36 2 -74 6 -85 10 -25 8 -26 -3 -2 -22 15 -13 13 -14 -22 -8 -21 4 -45 13
-53 21 -17 17 -49 18 -59 3 -3 -6 0 -15 7 -20 12 -8 12 -11 -1 -19 -11 -7 -18
-5 -26 5 -16 21 -132 46 -119 25 3 -5 13 -6 22 -3 11 4 14 3 9 -5 -10 -17 -46
-15 -46 3 0 9 -10 15 -26 15 -14 0 -23 -4 -20 -9 3 -5 -14 -14 -39 -20 -25 -6
-45 -17 -45 -23 0 -9 -3 -9 -12 0 -14 14 -45 16 -50 4 -5 -15 -78 -1 -78 14 0
16 -9 18 -30 4 -10 -6 -11 -10 -2 -10 6 0 12 -4 12 -10 0 -6 -33 -10 -79 -10
-44 0 -81 -4 -83 -9 -1 -5 -19 -12 -38 -15 -22 -5 -30 -4 -22 2 11 7 9 10 -7
15 -12 3 -24 1 -27 -4 -3 -5 -20 -9 -38 -9 -17 0 -37 -5 -44 -12 -8 -8 -12 -8
-12 -1 0 6 7 13 15 17 8 3 15 10 15 16 0 14 -27 13 -32 -1 -2 -6 -15 -13 -28
-14 -54 -5 -56 -6 -35 -15 13 -6 -11 -8 -67 -7 -49 2 -88 -1 -88 -5 0 -5 -8
-8 -17 -8 -9 0 -13 3 -10 6 8 9 -11 44 -23 44 -6 0 -10 -6 -10 -14 0 -17 -101
-31 -111 -14 -8 13 -29 2 -29 -15 0 -9 -21 -13 -67 -12 -38 0 -99 -4 -138 -9
-62 -7 -68 -7 -51 6 12 10 15 17 8 22 -13 8 -42 -3 -42 -16 0 -5 -9 -7 -19 -3
-11 3 -22 1 -26 -5 -3 -6 -13 -7 -20 -2 -8 4 -52 5 -97 1 -46 -3 -97 -3 -114
1 -19 4 -37 3 -47 -5 -20 -15 -90 -12 -95 4 -2 6 6 15 19 19 13 5 18 12 12 15
-6 4 -26 -1 -44 -10 -18 -9 -28 -18 -21 -21 19 -6 3 -22 -23 -22 -18 0 -23 4
-18 16 4 12 -1 15 -23 12 -16 -2 -31 -6 -34 -10 -10 -12 -113 -14 -148 -3 -28
10 -40 10 -64 -3 -27 -13 -34 -13 -64 2 -39 18 -64 21 -64 6 0 -5 -7 -10 -15
-10 -8 0 -15 5 -15 11 0 7 -14 8 -39 4 -22 -4 -42 -2 -45 3 -8 13 -74 13 -82
1 -3 -5 -27 -9 -53 -9 -26 0 -52 -5 -58 -11 -6 -6 -22 -7 -39 -3 l-29 8 25 7
c26 7 -41 12 -145 10 -27 -1 -56 3 -64 8 -16 10 -44 3 -36 -9 3 -5 1 -11 -5
-15 -14 -9 -52 4 -45 16 6 8 1 10 -37 13 -7 1 -17 7 -21 14 -4 6 -22 12 -40
11 -18 0 -25 -3 -17 -6 8 -4 20 -13 26 -22 7 -8 25 -15 40 -16 38 0 28 -20
-11 -21 -45 0 -65 7 -65 23 0 8 -6 13 -12 10 -7 -2 -12 -12 -12 -21 1 -9 -1
-16 -5 -16 -15 1 -46 26 -46 38 0 6 -4 11 -10 10 -5 -2 -9 -10 -8 -20 3 -18
-23 -32 -39 -22 -7 5 -4 12 7 21 18 12 18 14 -3 33 -29 27 -28 38 3 46 14 3
25 13 25 21 0 10 6 13 16 9 9 -3 31 -6 50 -6 28 0 34 -4 34 -21 0 -20 4 -21
42 -16 28 4 37 2 27 -4 -12 -8 -12 -10 1 -19 16 -10 30 -13 30 -5 0 4 -21 55
-26 63 -1 2 -11 -2 -23 -9 -21 -14 -41 -5 -25 11 9 9 71 12 192 11 60 -1 82
-16 82 -55 0 -14 5 -26 10 -26 6 0 10 11 10 24 0 45 81 72 120 40 12 -10 22
-10 49 3 27 14 37 14 53 4 15 -9 23 -10 31 -2 8 8 7 11 -3 11 -8 1 3 7 25 15
49 18 45 18 45 2 0 -9 12 -11 40 -9 36 4 40 2 40 -18 0 -12 4 -18 10 -15 6 4
8 10 5 15 -6 10 56 30 92 30 12 0 23 -6 26 -12 3 -10 9 -10 29 1 19 10 42 11
94 4 49 -6 87 -5 129 4 82 17 98 16 91 -2 -4 -11 1 -15 17 -15 12 0 32 -3 44
-6 18 -5 22 -2 19 13 -3 16 1 18 29 15 18 -2 36 1 39 7 4 6 14 11 23 11 14 0
14 -3 -2 -20 -17 -19 -17 -20 -1 -20 9 0 15 4 12 9 -11 17 38 20 57 4 17 -16
17 -16 11 1 -6 16 -5 17 15 5 11 -8 21 -17 21 -21 0 -17 40 -7 50 12 12 23 42
28 34 5 -4 -8 -1 -15 5 -15 6 0 11 5 11 10 0 6 11 10 25 10 14 0 34 6 45 13
17 10 22 9 28 -1 9 -13 132 -13 132 1 0 4 7 7 15 7 8 0 15 -5 15 -11 0 -6 5
-7 13 -2 16 10 109 18 202 16 17 0 116 2 220 4 336 9 360 9 368 -2 4 -6 10 -5
16 4 10 16 164 17 169 1 2 -6 10 -10 18 -10 9 0 12 5 9 10 -3 6 1 10 10 10 10
0 13 -5 9 -12 -5 -8 0 -7 11 2 13 11 48 16 129 17 61 2 131 5 156 7 25 2 137
7 250 10 113 4 261 9 330 12 69 2 199 6 290 9 91 3 212 7 270 10 499 24 608
27 628 16 13 -7 22 -7 24 -1 2 6 67 12 153 15 82 3 151 8 153 10 4 4 65 -1
140 -10z m-2695 -2 c-7 -2 -19 -2 -25 0 -7 3 -2 5 12 5 14 0 19 -2 13 -5z
m-2735 -18 c-2 -5 -15 -9 -30 -7 -16 2 -28 -2 -28 -7 0 -6 -18 -10 -42 -10
l-43 2 35 6 c33 6 34 7 15 19 -17 11 -12 12 38 10 32 -2 56 -7 55 -13z m2669
9 c-3 -3 -12 -4 -19 -1 -8 3 -5 6 6 6 11 1 17 -2 13 -5z m2882 -3 c17 -11 5
-32 -14 -25 -18 7 -28 34 -12 34 7 0 18 -4 26 -9z m-6379 -21 c-14 -4 -34 -4
-45 -1 -15 4 -12 7 15 11 41 7 66 -1 30 -10z m305 10 c-3 -5 -12 -7 -20 -3
-21 7 -19 13 6 13 11 0 18 -4 14 -10z m239 -3 c-21 -12 -94 -16 -94 -5 0 8 32
14 79 15 31 1 32 0 15 -10z m138 1 c-9 -9 -15 -9 -24 0 -9 9 -7 12 12 12 19 0
21 -3 12 -12z m-771 -7 c-12 -8 -51 -4 -51 5 0 2 15 4 33 4 22 0 28 -3 18 -9z
m1346 -97 c-3 -3 -12 -4 -19 -1 -8 3 -5 6 6 6 11 1 17 -2 13 -5z m1113 -4 c0
-5 -4 -10 -10 -10 -5 0 -10 5 -10 10 0 6 5 10 10 10 6 0 10 -4 10 -10z m2015
-20 c3 -5 -1 -10 -9 -10 -8 0 -18 5 -21 10 -3 6 1 10 9 10 8 0 18 -4 21 -10z
m1469 -47 c3 -4 16 -8 29 -10 12 -2 27 -4 32 -5 6 -1 28 2 50 5 28 5 34 4 20
-3 -17 -7 -14 -9 15 -9 26 -1 31 2 20 9 -10 7 8 10 60 10 50 -1 81 -5 94 -15
11 -8 29 -13 40 -9 17 4 18 3 6 -5 -8 -6 -24 -11 -34 -11 -11 0 -16 -3 -13 -7
4 -3 71 -7 149 -8 79 -1 163 -7 188 -13 25 -6 57 -13 72 -16 23 -5 26 -11 30
-56 2 -40 0 -51 -13 -55 -21 -7 -30 -40 -16 -54 8 -8 4 -11 -14 -12 -26 -2
-54 -3 -144 -9 -34 -1 -48 -5 -32 -7 27 -4 38 -30 15 -38 -7 -2 -66 -9 -132
-15 -65 -6 -126 -15 -135 -20 -14 -8 -14 -9 2 -10 10 0 15 -4 12 -10 -4 -6 38
-10 117 -11 77 -1 114 -4 98 -9 -24 -8 -23 -8 8 -9 34 -1 48 -31 15 -31 -10 0
-35 -5 -56 -11 -32 -9 -36 -13 -26 -25 15 -18 13 -20 -35 -28 -33 -6 -38 -5
-32 9 5 14 -4 15 -72 13 -55 -2 -76 -7 -74 -15 1 -7 -4 -13 -10 -14 -7 0 -44
-1 -83 -2 -57 -2 -70 -5 -73 -19 -3 -15 4 -18 35 -19 36 -1 35 -2 -16 -12 -50
-11 -81 -35 -49 -38 7 -1 -5 -5 -27 -9 -22 -3 -119 -5 -215 -4 l-175 3 120
-10 c66 -5 221 -13 345 -18 210 -9 201 -9 -147 -5 -337 4 -373 2 -381 -12 -8
-14 -22 -16 -88 -12 -47 3 -100 0 -134 -8 -31 -7 -65 -13 -76 -13 -44 0 -261
-23 -289 -31 -22 -6 -5 -9 68 -11 139 -4 156 -5 164 -13 4 -4 -49 -6 -118 -4
-123 3 -126 2 -119 -17 5 -11 23 -67 40 -125 18 -58 38 -118 45 -135 33 -78
58 -236 48 -300 -6 -36 -7 -37 -15 -15 -5 14 -5 26 1 29 6 4 6 12 1 21 -6 8
-10 47 -11 85 -1 63 -3 56 -19 -75 -18 -146 -33 -226 -43 -236 -13 -13 -19
107 -7 136 7 16 10 41 6 54 -3 13 -3 33 1 43 6 16 8 15 14 -7 5 -14 7 30 6 97
-1 107 -3 124 -18 128 -10 3 -20 11 -22 18 -2 7 -2 3 1 -8 3 -11 4 -36 4 -55
-1 -19 4 -37 10 -41 7 -4 6 -13 -1 -28 -7 -12 -17 -18 -23 -15 -8 5 -9 1 -4
-12 13 -30 18 -106 7 -100 -5 4 -17 -4 -26 -16 -16 -22 -16 -22 -9 15 5 29 3
37 -7 35 -19 -4 -23 36 -4 52 9 7 15 8 15 2 0 -6 -6 -12 -12 -15 -10 -4 -10
-7 0 -18 10 -11 12 -11 13 2 1 7 3 34 5 59 6 61 -3 82 -22 56 -8 -12 -10 -23
-4 -31 5 -6 5 -16 0 -25 -8 -12 -10 -11 -11 5 -3 80 -14 129 -28 121 -11 -7
-23 37 -15 58 4 11 2 15 -7 11 -10 -3 -31 29 -67 103 -54 111 -117 229 -144
272 -42 67 -78 143 -71 153 3 7 2 9 -2 5 -5 -5 -21 13 -37 40 -16 26 -41 64
-56 85 -16 21 -50 81 -77 132 -42 80 -48 96 -36 107 12 11 13 10 7 -7 -5 -18
-4 -18 6 -4 12 14 65 16 479 17 257 1 495 6 530 11 35 5 98 12 139 16 114 9
208 27 185 35 -31 11 90 22 157 14 40 -5 58 -3 58 5 0 12 32 15 44 4z m-1167
-49 c-3 -3 -12 -4 -19 -1 -8 3 -5 6 6 6 11 1 17 -2 13 -5z m-84 -11 c-24 -2
-62 -2 -85 0 -24 2 -5 4 42 4 47 0 66 -2 43 -4z m-3128 -13 c-3 -5 -10 -10
-16 -10 -5 0 -9 5 -9 10 0 6 7 10 16 10 8 0 12 -4 9 -10z m-488 -26 c-3 -3
-12 -4 -19 -1 -8 3 -5 6 6 6 11 1 17 -2 13 -5z m2740 -60 c-3 -3 -12 -4 -19
-1 -8 3 -5 6 6 6 11 1 17 -2 13 -5z m-52 -24 c-3 -5 -12 -10 -18 -10 -7 0 -6
4 3 10 19 12 23 12 15 0z m-400 -99 c-6 -5 -36 -22 -67 -39 -31 -16 -54 -33
-50 -38 4 -4 -1 -4 -10 -1 -10 4 -18 2 -18 -3 0 -6 -5 -10 -11 -10 -7 0 -18
-8 -25 -17 -7 -10 -15 -15 -19 -12 -9 10 61 62 130 98 60 30 88 40 70 22z
m3223 -68 c-10 -2 -26 -2 -35 0 -10 3 -2 5 17 5 19 0 27 -2 18 -5z m-160 -10
c-10 -2 -26 -2 -35 0 -10 3 -2 5 17 5 19 0 27 -2 18 -5z m-2635 -10 c-7 -2
-19 -2 -25 0 -7 3 -2 5 12 5 14 0 19 -2 13 -5z m2820 -10 c-7 -2 -19 -2 -25 0
-7 3 -2 5 12 5 14 0 19 -2 13 -5z m-5783 -18 c18 -9 27 -21 25 -32 -2 -10 -4
-22 -4 -27 -1 -5 -8 -3 -16 4 -8 6 -20 8 -26 4 -16 -10 -38 22 -32 46 6 24 15
25 53 5z m2987 9 c-3 -3 -12 -4 -19 -1 -8 3 -5 6 6 6 11 1 17 -2 13 -5z m128
-4 c3 -5 -1 -10 -10 -10 -9 0 -13 5 -10 10 3 6 8 10 10 10 2 0 7 -4 10 -10z
m-3351 -59 c7 -11 -14 -20 -31 -13 -7 2 -13 8 -13 13 0 12 37 12 44 0z m199
-58 c-7 -2 -21 -2 -30 0 -10 3 -4 5 12 5 17 0 24 -2 18 -5z m5388 -21 c-18 -2
-37 0 -42 5 -5 5 11 6 34 3 41 -4 41 -5 8 -8z m-6211 -12 c0 -5 -12 -10 -26
-10 -14 0 -23 4 -19 10 3 6 15 10 26 10 10 0 19 -4 19 -10z m-215 -10 c3 -5 1
-10 -4 -10 -6 0 -11 5 -11 10 0 6 2 10 4 10 3 0 8 -4 11 -10z m1043 -16 c-9
-9 -21 -13 -27 -10 -20 13 -11 26 16 26 25 0 26 -1 11 -16z m5375 -11 c-13 -2
-35 -2 -50 0 -16 2 -5 4 22 4 28 0 40 -2 28 -4z m-5788 -13 c8 -13 -5 -13 -25
0 -13 8 -13 10 2 10 9 0 20 -4 23 -10z m-92 -11 c46 -3 -38 -17 -98 -16 l-60
0 47 6 c26 4 50 10 55 14 4 4 13 5 21 2 7 -3 23 -6 35 -6z m484 -15 c-3 -3
-12 -4 -19 -1 -8 3 -5 6 6 6 11 1 17 -2 13 -5z m2 -38 c-10 -9 -79 -14 -74 -5
4 5 22 9 42 9 20 0 34 -2 32 -4z m58 -2 c-3 -3 -12 -4 -19 -1 -8 3 -5 6 6 6
11 1 17 -2 13 -5z m86 -1 c-7 -2 -19 -2 -25 0 -7 3 -2 5 12 5 14 0 19 -2 13
-5z m5077 -15 c10 -6 -8 -7 -49 -4 -35 3 -116 6 -180 6 -78 0 -111 3 -101 10
18 12 309 1 330 -12z m-5730 -9 c0 -5 -4 -9 -10 -9 -5 0 -10 7 -10 16 0 8 5
12 10 9 6 -3 10 -10 10 -16z m5853 4 c-13 -2 -33 -2 -45 0 -13 2 -3 4 22 4 25
0 35 -2 23 -4z m80 0 c-7 -2 -19 -2 -25 0 -7 3 -2 5 12 5 14 0 19 -2 13 -5z
m-708 -34 c-38 -5 -126 -10 -195 -13 -124 -5 -125 -5 -30 4 52 5 106 11 120
13 14 2 59 4 100 4 l75 0 -70 -8z m475 1 c0 -5 -13 -10 -28 -10 -16 0 -64 -9
-107 -20 -43 -11 -102 -20 -132 -20 -29 0 -68 -6 -86 -13 -18 -8 -49 -17 -70
-21 -21 -4 -36 -10 -33 -14 2 -4 -75 -8 -172 -8 -98 -1 -222 -3 -276 -5 -93
-3 -100 -2 -107 18 -8 21 -6 21 204 26 117 3 250 10 297 16 123 15 299 42 340
51 52 12 170 12 170 0z m-4190 -70 c0 -5 -5 -10 -11 -10 -5 0 -7 5 -4 10 3 6
8 10 11 10 2 0 4 -4 4 -10z m40 -70 c0 -5 9 -10 19 -10 30 0 51 -11 51 -26 0
-8 -6 -14 -12 -14 -17 1 -86 59 -70 60 6 0 12 -4 12 -10z m3180 -21 c0 -6 -4
-7 -10 -4 -5 3 -10 11 -10 16 0 6 5 7 10 4 6 -3 10 -11 10 -16z m-2580 -99
c12 -8 9 -10 -12 -10 -16 0 -28 5 -28 10 0 13 20 13 40 0z m-183 -16 c-3 -3
-12 -4 -19 -1 -8 3 -5 6 6 6 11 1 17 -2 13 -5z m2851 -100 c-3 -14 -5 -12 -10
9 -3 19 -2 25 4 19 6 -6 8 -18 6 -28z m-231 -6 c-3 -8 -6 -5 -6 6 -1 11 2 17
5 13 3 -3 4 -12 1 -19z m263 -28 c12 -23 12 -24 -3 -11 -10 7 -17 20 -17 29 0
18 3 16 20 -18z m29 -85 c0 -5 -4 -3 -9 5 -5 8 -9 22 -9 30 0 16 17 -16 18
-35z m20 -57 c1 -5 -3 -8 -9 -8 -5 0 -10 12 -9 28 0 24 1 25 9 7 5 -11 9 -23
9 -27z m-29 -28 c0 -13 -1 -13 -10 0 -5 8 -10 22 -10 30 0 13 1 13 10 0 5 -8
10 -22 10 -30z m77 -23 c25 -41 40 -135 19 -118 -7 6 -12 23 -10 37 3 31 -4
54 -18 54 -5 0 -7 -9 -3 -20 5 -15 3 -18 -10 -14 -17 7 -17 54 0 66 6 4 1 8
-10 8 -17 0 -17 2 -5 10 8 5 16 10 17 10 0 0 10 -15 20 -33z m-2314 -74 c2
-29 0 -53 -4 -53 -5 0 -9 28 -8 63 1 71 5 67 12 -10z m2024 -25 c-3 -7 -5 -2
-5 12 0 14 2 19 5 13 2 -7 2 -19 0 -25z m113 -17 c-12 -31 -38 -45 -26 -15 3
9 9 27 12 41 5 16 10 21 17 14 7 -7 6 -20 -3 -40z m137 43 c-3 -3 -12 -4 -19
-1 -8 3 -5 6 6 6 11 1 17 -2 13 -5z m33 -50 c0 -14 -4 -23 -10 -19 -5 3 -10
15 -10 26 0 10 5 19 10 19 6 0 10 -12 10 -26z m-2240 12 c0 -2 -9 -6 -20 -9
-11 -3 -20 -1 -20 4 0 5 9 9 20 9 11 0 20 -2 20 -4z m2315 -78 c3 -7 -1 -4 -9
6 -9 11 -16 29 -15 40 1 17 2 16 9 -6 4 -14 11 -32 15 -40z m-249 -34 c-1 -24
-5 -47 -9 -50 -3 -4 -6 6 -5 22 1 16 -2 41 -6 57 -7 22 -5 26 7 21 12 -4 15
-17 13 -50z m-49 -61 c-3 -10 -5 -4 -5 12 0 17 2 24 5 18 2 -7 2 -21 0 -30z
m29 -60 c-14 -14 -26 15 -19 48 l7 34 9 -38 c5 -21 6 -41 3 -44z m-16 -98
c-18 -65 -19 -66 -13 -20 6 52 21 101 28 94 2 -3 -5 -36 -15 -74z m202 -27
c-8 -8 -9 -4 -5 13 4 13 8 18 11 10 2 -7 -1 -18 -6 -23z m-649 -738 c-3 -12
-8 -19 -11 -16 -5 6 5 36 12 36 2 0 2 -9 -1 -20z m-466 -146 c-3 -3 -12 -4
-19 -1 -8 3 -5 6 6 6 11 1 17 -2 13 -5z m-60 -19 c3 -9 -2 -24 -12 -34 -16
-18 -15 -20 2 -24 13 -3 11 -5 -7 -6 -17 -1 -32 -11 -43 -31 -20 -34 -38 -38
-62 -13 -16 15 -15 18 7 34 12 10 19 19 14 19 -10 0 75 69 87 69 4 1 10 -6 14
-14z m4053 -37 l45 -30 -37 7 c-40 8 -49 -3 -23 -25 8 -7 12 -16 9 -22 -3 -5
0 -16 7 -25 11 -13 10 -17 -6 -29 -22 -16 -41 -18 -50 -4 -10 16 -45 12 -45
-6 0 -12 -5 -14 -17 -8 -10 4 -28 8 -40 8 -13 1 -23 7 -23 14 0 6 -10 12 -22
12 -13 0 -18 3 -12 8 6 4 10 21 10 37 -1 24 5 33 32 46 21 11 28 19 20 22 -10
4 -8 10 6 21 27 22 90 11 146 -26z m-4000 -8 c0 -5 -4 -10 -10 -10 -5 0 -10 5
-10 10 0 6 5 10 10 10 6 0 10 -4 10 -10z m3670 -49 c0 -5 -9 -7 -20 -4 -11 3
-20 7 -20 9 0 2 9 4 20 4 11 0 20 -4 20 -9z m-3846 -36 c16 -25 16 -25 -11
-25 -16 0 -35 5 -43 10 -13 9 -12 12 4 25 26 20 31 19 50 -10z m4256 -52 c0
-5 -5 -15 -10 -23 -8 -12 -10 -11 -10 8 0 12 5 22 10 22 6 0 10 -3 10 -7z
m-2950 -23 c8 -5 11 -10 5 -10 -5 0 -17 5 -25 10 -8 5 -10 10 -5 10 6 0 17 -5
25 -10z m95 -26 c13 -6 14 -9 3 -16 -9 -7 -4 -8 17 -5 18 3 44 -2 67 -14 49
-25 215 -164 229 -192 6 -12 20 -32 31 -44 12 -13 17 -27 12 -35 -4 -7 -4 -10
1 -6 5 5 16 -6 26 -22 12 -19 27 -30 41 -30 12 0 40 -9 62 -20 66 -32 306
-276 306 -310 0 -7 -24 -54 -53 -104 -60 -103 -95 -186 -127 -301 -12 -44 -37
-122 -56 -173 l-35 -93 10 -152 c38 -529 40 -1548 5 -1812 -5 -38 -9 -45 -14
-30 -4 11 -5 -10 -2 -47 5 -67 -1 -90 -43 -171 -19 -37 -19 -51 1 -43 13 5 15
0 10 -27 -9 -59 -18 -80 -27 -65 -7 10 -9 9 -9 -5 0 -9 -9 -34 -20 -54 -21
-40 -27 -83 -10 -83 12 0 13 -47 1 -54 -5 -4 -7 3 -4 14 3 11 1 20 -3 20 -11
0 -50 -108 -60 -163 -3 -21 -17 -60 -30 -86 -12 -26 -30 -74 -40 -107 -9 -32
-20 -66 -25 -74 -10 -19 -81 -176 -97 -213 -8 -18 -16 -26 -25 -21 -15 9 12
-26 32 -42 11 -9 8 -18 -18 -54 -17 -24 -31 -50 -31 -57 0 -8 -8 -27 -19 -41
-10 -15 -38 -69 -61 -120 -24 -50 -47 -92 -52 -92 -4 0 -8 -7 -8 -15 0 -8 -4
-15 -10 -15 -15 0 -12 11 10 48 11 18 20 42 20 53 0 12 9 34 21 50 15 21 18
33 10 46 -9 16 -11 15 -20 -10 -6 -16 -11 -32 -11 -36 0 -5 -7 -14 -15 -21 -8
-7 -20 -30 -26 -52 -6 -26 -17 -42 -30 -45 -10 -3 -16 -9 -13 -14 6 -10 -7
-12 -30 -3 -9 3 -16 12 -16 20 0 8 -4 14 -10 14 -10 0 -82 47 -90 59 -3 5 -23
18 -45 29 -22 12 -55 37 -73 55 -18 19 -45 40 -60 47 -15 7 -34 16 -42 20 -8
3 -19 21 -25 38 -5 18 -13 32 -17 32 -4 0 -8 10 -8 23 0 13 -5 28 -11 34 -7 7
-10 36 -7 77 2 36 0 66 -4 66 -4 0 -8 -4 -8 -9 0 -21 -39 3 -46 27 -10 39 -4
102 12 127 8 12 11 24 8 28 -9 9 6 48 17 42 5 -3 6 1 3 10 -4 8 -2 21 4 28 5
6 12 30 16 52 11 61 16 75 31 75 7 0 15 -7 19 -15 10 -27 35 -17 34 13 -1 15
4 37 10 49 6 11 8 23 5 27 -3 3 -2 6 4 6 6 0 13 12 16 28 20 94 32 123 55 129
19 4 22 10 17 30 -19 76 -18 83 4 83 11 0 21 6 21 14 0 8 5 16 12 18 8 3 11
21 9 52 -2 44 0 51 34 81 l36 34 -16 36 c-22 55 -20 73 12 77 19 2 32 14 45
40 18 34 18 39 4 60 -23 32 -20 65 8 83 20 13 46 72 26 60 -4 -2 -14 12 -24
32 -16 34 -16 36 1 55 22 24 27 116 7 138 -10 12 -10 23 -1 53 7 20 18 37 24
37 21 0 15 28 -7 35 -26 8 -35 48 -22 93 6 21 14 73 17 117 3 44 9 96 14 115
26 97 63 864 40 804 -4 -10 -8 -28 -8 -40 -1 -16 -12 -23 -51 -33 -56 -14 -65
-23 -52 -48 9 -15 4 -46 -16 -93 -3 -8 -9 14 -12 50 l-7 65 -1 -62 c-1 -37 -6
-63 -13 -63 -7 0 -9 24 -6 73 8 115 15 137 45 137 23 1 92 64 92 84 0 14 -7
16 -37 10 -21 -4 -48 -11 -61 -15 -42 -16 -43 -12 -41 94 4 176 -2 324 -11
302 -8 -19 -9 -18 -11 5 -2 23 -2 24 -6 3 -4 -22 -5 -22 -24 -4 -23 21 -41 86
-33 114 3 9 0 17 -6 17 -6 0 -8 5 -5 10 12 19 15 73 5 89 -8 14 -9 14 -10 -1
0 -10 -4 -18 -10 -18 -15 0 -12 37 4 53 13 12 13 23 0 83 -15 74 -19 150 -4
84 18 -78 45 -160 52 -160 9 0 10 21 10 115 0 69 -11 127 -22 120 -4 -3 -10
10 -12 29 -3 31 -2 33 18 24 12 -6 25 -20 29 -32 7 -19 7 -20 12 -2 3 10 -1
22 -8 27 -10 6 -10 10 0 23 8 9 9 16 4 16 -4 0 -7 18 -5 40 3 32 1 40 -12 40
-19 0 -20 5 -6 30 6 11 16 17 23 14 8 -3 18 6 25 21 9 18 9 24 0 22 -19 -4
-29 64 -12 81 8 8 18 27 21 43 4 20 12 29 24 29 14 0 19 7 19 29 0 39 84 124
115 116 12 -3 10 -1 -5 6 -55 24 -74 34 -77 45 -4 13 60 44 92 44 14 0 25 5
25 10 0 6 8 10 18 11 14 0 14 2 -3 9 -20 8 -20 8 -1 16 19 7 19 8 0 15 -15 6
-16 8 -2 8 9 1 24 -2 33 -5z m-1198 -184 c-4 -36 -3 -40 16 -40 11 0 18 -3 14
-6 -3 -4 -18 -4 -32 0 -21 5 -25 12 -25 46 0 30 4 40 16 40 14 0 16 -7 11 -40z
m993 -100 c0 -5 -5 -10 -11 -10 -5 0 -7 5 -4 10 3 6 8 10 11 10 2 0 4 -4 4
-10z m-1223 -26 c-3 -3 -12 -4 -19 -1 -8 3 -5 6 6 6 11 1 17 -2 13 -5z m101
-89 c0 -30 -6 -59 -12 -64 -8 -7 -10 1 -8 31 3 24 0 43 -7 47 -14 9 -3 41 14
41 9 0 13 -17 13 -55z m219 23 c-3 -7 -5 -2 -5 12 0 14 2 19 5 13 2 -7 2 -19
0 -25z m823 2 c0 -5 -5 -10 -11 -10 -5 0 -7 5 -4 10 3 6 8 10 11 10 2 0 4 -4
4 -10z m-3 -82 c-3 -8 -6 -5 -6 6 -1 11 2 17 5 13 3 -3 4 -12 1 -19z m-837
-64 c7 -30 8 -59 5 -62 -4 -4 -10 -1 -12 6 -3 7 -11 19 -19 26 -19 19 -19 86
0 86 10 0 19 -19 26 -56z m620 -129 c0 -14 -4 -25 -10 -25 -5 0 -10 11 -10 25
0 14 5 25 10 25 6 0 10 -11 10 -25z m-100 -75 c0 -71 -16 -81 -22 -12 -3 38 5
69 20 72 1 0 2 -27 2 -60z m234 24 c9 -22 8 -24 -9 -24 -8 0 -15 9 -15 20 0
24 15 27 24 4z m-3118 -239 c-3 -11 1 -34 10 -50 14 -28 8 -51 -11 -37 -18 13
-48 74 -39 81 5 3 9 12 10 19 3 33 4 34 20 21 9 -7 13 -21 10 -34z m2964 20
c0 -30 -15 -33 -30 -6 -14 27 -13 31 10 31 15 0 20 -7 20 -25z m29 -48 c12
-15 5 -27 -16 -27 -7 0 -13 9 -13 20 0 23 13 26 29 7z m-804 -37 c-3 -5 -10
-10 -16 -10 -5 0 -9 5 -9 10 0 6 7 10 16 10 8 0 12 -4 9 -10z m-2145 -55 c7
-9 8 -15 2 -15 -5 0 -12 7 -16 15 -3 8 -4 15 -2 15 2 0 9 -7 16 -15z m3187
-237 c-2 -13 -4 -5 -4 17 -1 22 1 32 4 23 2 -10 2 -28 0 -40z m140 -515 c-3
-10 -5 -4 -5 12 0 17 2 24 5 18 2 -7 2 -21 0 -30z m-1407 -63 c0 -11 -4 -20
-9 -20 -11 0 -22 26 -14 34 12 12 23 5 23 -14z m-43 -12 c-3 -8 -6 -5 -6 6 -1
11 2 17 5 13 3 -3 4 -12 1 -19z m58 -39 c-8 -12 -35 -12 -35 0 0 11 22 20 33
14 4 -2 5 -9 2 -14z m1345 -790 c-7 -11 -14 -18 -17 -15 -8 8 5 36 17 36 7 0
7 -6 0 -21z m6 -146 c-10 -10 -19 5 -10 18 6 11 8 11 12 0 2 -7 1 -15 -2 -18z
m601 -975 c-3 -7 -5 -2 -5 12 0 14 2 19 5 13 2 -7 2 -19 0 -25z m-860 -40 c-3
-8 -6 -5 -6 6 -1 11 2 17 5 13 3 -3 4 -12 1 -19z"/>
<path d="M6146 14701 c-4 -7 -5 -15 -2 -18 9 -9 19 4 14 18 -4 11 -6 11 -12 0z"/>
<path d="M5200 14370 c0 -5 -6 -7 -14 -4 -9 3 -19 -4 -27 -18 -6 -13 -16 -26
-21 -29 -5 -3 -1 -20 9 -37 18 -29 20 -30 36 -15 16 16 17 16 17 -10 0 -32 10
-34 35 -7 10 12 25 18 32 16 7 -3 13 -1 13 3 0 5 -7 11 -15 15 -8 3 -15 15
-15 26 0 12 -4 29 -10 39 -11 21 -40 36 -40 21z"/>
<path d="M6770 14371 c0 -6 5 -13 10 -16 6 -3 10 1 10 9 0 9 -4 16 -10 16 -5
0 -10 -4 -10 -9z"/>
<path d="M5073 14185 c-5 -16 22 -55 39 -55 4 0 8 16 8 35 0 29 -4 35 -20 35
-11 0 -23 -7 -27 -15z"/>
<path d="M6618 9643 c7 -3 16 -2 19 1 4 3 -2 6 -13 5 -11 0 -14 -3 -6 -6z"/>
<path d="M6557 9634 c-4 -4 -16 -7 -27 -8 -39 -2 -19 -21 22 -21 33 0 44 4 46
18 2 11 -3 17 -16 17 -10 0 -22 -3 -25 -6z"/>
<path d="M6315 9610 c-3 -5 1 -10 10 -10 9 0 13 5 10 10 -3 6 -8 10 -10 10 -2
0 -7 -4 -10 -10z"/>
<path d="M4235 9560 c7 -12 42 -12 70 0 15 6 8 9 -28 9 -30 1 -46 -3 -42 -9z"/>
<path d="M4117 9554 c-8 -8 1 -24 14 -24 5 0 9 7 9 15 0 15 -12 20 -23 9z"/>
<path d="M4850 9556 c0 -2 7 -6 15 -10 8 -3 15 -1 15 4 0 6 -7 10 -15 10 -8 0
-15 -2 -15 -4z"/>
<path d="M5405 9541 c-17 -7 -15 -9 13 -13 35 -5 53 6 26 16 -9 3 -16 6 -17 5
-1 0 -11 -4 -22 -8z"/>
<path d="M2338 9523 c7 -3 16 -2 19 1 4 3 -2 6 -13 5 -11 0 -14 -3 -6 -6z"/>
<path d="M2418 9523 c7 -3 16 -2 19 1 4 3 -2 6 -13 5 -11 0 -14 -3 -6 -6z"/>
<path d="M2838 9513 c7 -3 16 -2 19 1 4 3 -2 6 -13 5 -11 0 -14 -3 -6 -6z"/>
<path d="M4350 9510 c0 -5 12 -10 26 -10 14 0 23 4 19 10 -3 6 -15 10 -26 10
-10 0 -19 -4 -19 -10z"/>
<path d="M4418 9513 c6 -2 18 -2 25 0 6 3 1 5 -13 5 -14 0 -19 -2 -12 -5z"/>
<path d="M2408 9493 c6 -2 18 -2 25 0 6 3 1 5 -13 5 -14 0 -19 -2 -12 -5z"/>
<path d="M3810 9460 c0 -5 7 -10 16 -10 8 0 12 5 9 10 -3 6 -10 10 -16 10 -5
0 -9 -4 -9 -10z"/>
<path d="M3658 9443 c7 -3 16 -2 19 1 4 3 -2 6 -13 5 -11 0 -14 -3 -6 -6z"/>
<path d="M1758 9433 c7 -3 16 -2 19 1 4 3 -2 6 -13 5 -11 0 -14 -3 -6 -6z"/>
<path d="M2728 9433 c7 -3 16 -2 19 1 4 3 -2 6 -13 5 -11 0 -14 -3 -6 -6z"/>
<path d="M3270 9425 c-7 -8 -8 -15 -2 -15 5 0 15 7 22 15 7 8 8 15 2 15 -5 0
-15 -7 -22 -15z"/>
<path d="M3353 9433 c9 -2 23 -2 30 0 6 3 -1 5 -18 5 -16 0 -22 -2 -12 -5z"/>
<path d="M1963 9423 c9 -2 23 -2 30 0 6 3 -1 5 -18 5 -16 0 -22 -2 -12 -5z"/>
<path d="M6728 9443 c7 -3 16 -2 19 1 4 3 -2 6 -13 5 -11 0 -14 -3 -6 -6z"/>
<path d="M6808 9443 c7 -3 16 -2 19 1 4 3 -2 6 -13 5 -11 0 -14 -3 -6 -6z"/>
<path d="M5415 9350 c-19 -5 11 -8 87 -9 68 -1 119 3 123 9 7 12 -164 12 -210
0z"/>
<path d="M5863 9333 c9 -2 23 -2 30 0 6 3 -1 5 -18 5 -16 0 -22 -2 -12 -5z"/>
<path d="M6320 9274 c0 -4 7 -15 15 -25 13 -14 23 -15 56 -8 31 7 45 6 62 -6
17 -12 36 -14 82 -9 81 9 101 20 50 29 -22 4 -44 11 -50 15 -13 10 -215 13
-215 4z"/>
<path d="M5910 9240 c0 -5 7 -7 15 -4 8 4 15 8 15 10 0 2 -7 4 -15 4 -8 0 -15
-4 -15 -10z"/>
<path d="M5978 9239 c-12 -8 24 -18 72 -21 19 -1 -14 -4 -75 -7 -106 -6 -109
-6 -70 -18 25 -8 92 -12 175 -12 84 1 124 4 105 9 -18 5 26 8 114 9 79 0 142
3 139 6 -3 3 -54 8 -114 11 -60 3 -122 10 -139 17 -30 12 -189 16 -207 6z
m135 -46 c-7 -2 -19 -2 -25 0 -7 3 -2 5 12 5 14 0 19 -2 13 -5z"/>
<path d="M7186 9235 c-3 -8 -1 -15 4 -15 6 0 10 7 10 15 0 8 -2 15 -4 15 -2 0
-6 -7 -10 -15z"/>
<path d="M6615 9220 c3 -5 8 -10 11 -10 2 0 4 5 4 10 0 6 -5 10 -11 10 -5 0
-7 -4 -4 -10z"/>
<path d="M7108 9223 c12 -2 32 -2 45 0 12 2 2 4 -23 4 -25 0 -35 -2 -22 -4z"/>
<path d="M7030 9159 c0 -5 5 -7 10 -4 6 3 10 8 10 11 0 2 -4 4 -10 4 -5 0 -10
-5 -10 -11z"/>
<path d="M5938 9123 c7 -3 16 -2 19 1 4 3 -2 6 -13 5 -11 0 -14 -3 -6 -6z"/>
<path d="M6414 9115 c-17 -13 -9 -14 86 -15 99 0 103 1 76 15 -37 19 -136 20
-162 0z m143 -1 c-3 -3 -12 -4 -19 -1 -8 3 -5 6 6 6 11 1 17 -2 13 -5z"/>
<path d="M6205 9070 l-40 -7 43 -2 c23 0 42 4 42 9 0 6 -1 9 -2 9 -2 -1 -21
-5 -43 -9z"/>
<path d="M6264 9072 c6 -10 124 -8 133 2 4 3 -26 6 -66 6 -40 0 -70 -4 -67 -8z"/>
<path d="M6030 9060 c-18 -6 -8 -8 40 -9 36 0 72 4 80 9 19 12 -82 12 -120 0z"/>
<path d="M6168 9033 c6 -2 18 -2 25 0 6 3 1 5 -13 5 -14 0 -19 -2 -12 -5z"/>
<path d="M6233 9033 c15 -2 37 -2 50 0 12 2 0 4 -28 4 -27 0 -38 -2 -22 -4z"/>
<path d="M6325 9000 c-27 -7 -25 -8 15 -8 25 0 72 4 105 8 l60 7 -75 0 c-41 1
-88 -3 -105 -7z"/>
<path d="M5923 8973 c15 -2 39 -2 55 0 15 2 2 4 -28 4 -30 0 -43 -2 -27 -4z"/>
<path d="M6463 8963 c9 -2 25 -2 35 0 9 3 1 5 -18 5 -19 0 -27 -2 -17 -5z"/>
<path d="M6473 8873 c9 -2 23 -2 30 0 6 3 -1 5 -18 5 -16 0 -22 -2 -12 -5z"/>
<path d="M5578 8863 c7 -3 16 -2 19 1 4 3 -2 6 -13 5 -11 0 -14 -3 -6 -6z"/>
<path d="M5765 8833 c-16 -3 -34 -9 -40 -15 -13 -14 221 -5 255 10 20 8 3 11
-80 10 -58 -1 -118 -3 -135 -5z"/>
<path d="M5502 8200 c0 -14 2 -19 5 -12 2 6 2 18 0 25 -3 6 -5 1 -5 -13z"/>
<path d="M5551 8064 c0 -11 3 -14 6 -6 3 7 2 16 -1 19 -3 4 -6 -2 -5 -13z"/>
<path d="M5542 8020 c0 -14 2 -19 5 -12 2 6 2 18 0 25 -3 6 -5 1 -5 -13z"/>
<path d="M6136 6328 c43 -47 69 -68 72 -58 6 15 -30 60 -59 76 -42 21 -46 17
-13 -18z"/>
<path d="M5605 5799 c4 -19 7 -43 7 -54 -1 -14 1 -16 7 -7 13 22 7 85 -8 90
-11 4 -12 -2 -6 -29z"/>
<path d="M5761 5255 c-2 -36 -26 -164 -41 -220 -22 -76 -23 -85 -10 -85 7 0
25 14 40 30 15 17 24 30 19 30 -14 0 -11 28 3 32 10 4 10 18 0 69 -10 45 -10
65 -3 67 12 4 13 45 1 82 -8 25 -8 24 -9 -5z"/>
<path d="M5821 4934 c0 -11 3 -14 6 -6 3 7 2 16 -1 19 -3 4 -6 -2 -5 -13z"/>
<path d="M5790 3375 c0 -3 8 -15 19 -26 18 -20 18 -20 14 6 -3 14 -12 25 -19
25 -8 0 -14 -2 -14 -5z"/>
<path d="M5775 3218 c-9 -22 4 -43 17 -30 7 7 7 16 0 29 -10 17 -11 17 -17 1z"/>
<path d="M5706 3062 c-2 -4 -4 -38 -4 -76 1 -62 3 -66 14 -43 21 39 11 153
-10 119z"/>
<path d="M5670 2903 c0 -13 5 -23 10 -23 13 0 13 11 0 30 -8 12 -10 11 -10 -7z"/>
<path d="M5663 2839 c-7 -9 -9 -20 -3 -29 12 -19 22 -7 18 21 -2 19 -5 20 -15
8z"/>
<path d="M6256 2761 c-4 -7 -5 -15 -2 -18 9 -9 19 4 14 18 -4 11 -6 11 -12 0z"/>
<path d="M5610 2694 c0 -14 4 -23 10 -19 6 3 10 15 10 26 0 10 -4 19 -10 19
-5 0 -10 -12 -10 -26z"/>
<path d="M6213 2592 c-3 -12 -9 -22 -14 -22 -5 0 -9 -7 -9 -15 0 -8 4 -15 9
-15 12 0 35 59 27 67 -4 4 -9 -3 -13 -15z"/>
<path d="M6162 2426 c-24 -41 -11 -59 18 -24 22 26 23 28 11 46 -6 10 -14 4
-29 -22z"/>
<path d="M6107 2266 c-9 -21 -17 -46 -17 -55 0 -9 -14 -36 -30 -61 -21 -32
-30 -57 -29 -85 l0 -40 29 60 c17 33 30 67 30 75 0 8 9 30 21 49 12 20 19 46
17 65 l-3 31 -18 -39z"/>
<path d="M5994 1942 c-16 -11 -64 -111 -64 -134 0 -20 1 -19 18 3 10 13 22 31
25 39 4 8 16 30 28 49 19 33 15 58 -7 43z"/>
<path d="M7516 14895 c-3 -8 -1 -15 4 -15 6 0 10 7 10 15 0 8 -2 15 -4 15 -2
0 -6 -7 -10 -15z"/>
<path d="M8590 14870 c0 -13 20 -13 40 0 12 8 9 10 -12 10 -16 0 -28 -4 -28
-10z"/>
<path d="M8540 14545 c0 -8 5 -15 10 -15 6 0 10 7 10 15 0 8 -4 15 -10 15 -5
0 -10 -7 -10 -15z"/>
<path d="M385 14500 c3 -5 8 -10 11 -10 2 0 4 5 4 10 0 6 -5 10 -11 10 -5 0
-7 -4 -4 -10z"/>
<path d="M0 13714 c0 -22 2 -24 14 -14 8 6 12 18 9 26 -9 23 -23 16 -23 -12z"/>
<path d="M288 13603 c7 -3 16 -2 19 1 4 3 -2 6 -13 5 -11 0 -14 -3 -6 -6z"/>
<path d="M1520 13000 c0 -5 7 -10 16 -10 8 0 12 5 9 10 -3 6 -10 10 -16 10 -5
0 -9 -4 -9 -10z"/>
<path d="M330 12800 c-25 -4 -65 -6 -90 -4 -63 4 -87 -17 -96 -83 l-7 -53 40
0 c24 0 46 -6 53 -15 8 -10 21 -13 37 -9 19 5 31 0 49 -20 14 -14 29 -26 34
-26 5 0 11 -8 13 -17 3 -11 5 -8 6 9 1 21 7 29 26 34 25 6 35 24 13 24 -9 0
-9 3 1 13 12 12 71 17 71 5 0 -3 18 1 40 9 22 9 39 19 37 22 -2 3 -10 21 -17
39 -8 17 -21 32 -30 32 -8 0 -37 11 -65 25 -27 13 -54 24 -60 23 -5 0 -30 -4
-55 -8z"/>
<path d="M3832 12630 c0 -14 2 -19 5 -12 2 6 2 18 0 25 -3 6 -5 1 -5 -13z"/>
<path d="M1760 12466 c0 -8 -8 -13 -17 -12 -12 1 -19 -7 -21 -23 l-4 -25 35
30 c39 32 45 44 22 44 -8 0 -15 -6 -15 -14z"/>
<path d="M1592 12428 c-17 -17 -15 -36 6 -41 56 -16 74 -17 86 -5 15 15 4 31
-29 40 -11 3 -27 9 -35 12 -9 4 -21 1 -28 -6z"/>
<path d="M4678 11123 c6 -2 18 -2 25 0 6 3 1 5 -13 5 -14 0 -19 -2 -12 -5z"/>
<path d="M4712 11064 c-9 -10 -10 -19 -3 -32 6 -9 11 -11 11 -4 0 6 7 12 15
12 18 0 19 14 3 28 -9 7 -17 6 -26 -4z"/>
<path d="M7585 10630 c3 -5 8 -10 11 -10 2 0 4 5 4 10 0 6 -5 10 -11 10 -5 0
-7 -4 -4 -10z"/>
<path d="M330 10255 c-10 -13 -9 -15 9 -15 11 0 21 4 21 9 0 18 -18 21 -30 6z"/>
<path d="M160 10245 c0 -8 4 -15 9 -15 5 0 14 7 21 15 10 13 9 15 -9 15 -12 0
-21 -6 -21 -15z"/>
<path d="M1675 10090 c-3 -5 1 -10 10 -10 9 0 13 5 10 10 -3 6 -8 10 -10 10
-2 0 -7 -4 -10 -10z"/>
<path d="M2320 10036 c0 -9 6 -16 13 -16 16 0 46 20 30 20 -6 0 -18 3 -27 6
-11 4 -16 1 -16 -10z"/>
<path d="M2160 10020 c0 -12 -7 -20 -17 -20 -9 0 -14 -3 -10 -6 12 -12 47 8
47 27 0 10 -4 19 -10 19 -5 0 -10 -9 -10 -20z"/>
<path d="M1692 10000 c-14 -30 -15 -30 -92 -30 -65 0 -81 3 -89 17 -5 10 -12
15 -15 12 -4 -3 2 -16 13 -27 17 -20 27 -22 110 -20 95 2 111 8 91 33 -10 12
-9 15 9 15 12 0 21 6 21 15 0 27 -35 16 -48 -15z"/>
<path d="M2691 10014 c0 -11 3 -14 6 -6 3 7 2 16 -1 19 -3 4 -6 -2 -5 -13z"/>
<path d="M2640 10007 c0 -10 8 -17 18 -17 9 0 13 4 7 8 -5 4 -13 11 -17 16 -5
5 -8 2 -8 -7z"/>
<path d="M2775 10010 c-3 -5 1 -10 9 -10 9 0 16 5 16 10 0 6 -4 10 -9 10 -6 0
-13 -4 -16 -10z"/>
<path d="M1538 9993 c12 -2 32 -2 45 0 12 2 2 4 -23 4 -25 0 -35 -2 -22 -4z"/>
<path d="M1628 9993 c6 -2 18 -2 25 0 6 3 1 5 -13 5 -14 0 -19 -2 -12 -5z"/>
<path d="M1840 9990 l-45 -7 42 -1 c23 -1 45 3 48 8 3 6 5 9 3 8 -2 0 -23 -4
-48 -8z"/>
<path d="M2035 9990 c-8 -13 0 -23 20 -26 19 -3 19 10 1 25 -10 9 -16 9 -21 1z"/>
<path d="M2325 9989 c-10 -15 1 -23 17 -13 19 12 38 14 38 3 0 -13 19 -11 34
4 11 10 4 13 -35 15 -26 1 -51 -3 -54 -9z"/>
<path d="M2478 9993 c-10 -2 -18 -9 -18 -14 0 -5 -8 -9 -17 -9 -32 0 3 -21 36
-22 38 -1 48 7 32 26 -10 11 -8 15 6 19 15 4 15 5 -2 5 -11 0 -28 -2 -37 -5z"/>
<path d="M2540 9980 c0 -5 5 -10 10 -10 6 0 10 5 10 10 0 6 -4 10 -10 10 -5 0
-10 -4 -10 -10z"/>
<path d="M1745 9969 c-10 -15 3 -25 16 -12 7 7 7 13 1 17 -6 3 -14 1 -17 -5z"/>
<path d="M2788 9973 c7 -3 16 -2 19 1 4 3 -2 6 -13 5 -11 0 -14 -3 -6 -6z"/>
<path d="M3060 9970 c0 -5 9 -10 20 -10 11 0 20 5 20 10 0 6 -9 10 -20 10 -11
0 -20 -4 -20 -10z"/>
<path d="M3835 9970 c-3 -5 1 -10 10 -10 9 0 13 5 10 10 -3 6 -8 10 -10 10 -2
0 -7 -4 -10 -10z"/>
<path d="M1800 9960 c0 -5 -9 -10 -20 -10 -11 0 -20 -5 -20 -10 0 -7 27 -10
72 -8 60 2 73 6 76 21 3 14 -5 17 -52 17 -31 0 -56 -4 -56 -10z"/>
<path d="M3767 9964 c18 -8 4 -33 -15 -27 -15 4 -15 3 -2 -6 19 -13 67 -14 75
-1 3 5 13 7 23 4 14 -5 15 -4 2 5 -8 6 -25 11 -38 11 -13 0 -20 4 -17 10 3 6
-4 10 -17 9 -13 0 -18 -3 -11 -5z"/>
<path d="M7955 9950 c-3 -5 1 -10 10 -10 9 0 13 5 10 10 -3 6 -8 10 -10 10 -2
0 -7 -4 -10 -10z"/>
<path d="M7732 9900 c-7 -11 -10 -20 -6 -20 7 0 34 27 34 34 0 13 -16 5 -28
-14z"/>
<path d="M1415 9900 c-4 -6 14 -10 47 -9 45 1 49 3 23 9 -44 11 -63 11 -70 0z"/>
<path d="M8400 9900 c0 -5 5 -10 11 -10 5 0 7 5 4 10 -3 6 -8 10 -11 10 -2 0
-4 -4 -4 -10z"/>
<path d="M3168 9303 c6 -2 18 -2 25 0 6 3 1 5 -13 5 -14 0 -19 -2 -12 -5z"/>
<path d="M3100 9229 c-14 -6 -55 -9 -92 -7 -51 3 -68 0 -68 -9 0 -7 -5 -13
-10 -13 -7 0 -8 -18 -4 -50 5 -35 3 -55 -7 -66 -10 -13 -10 -17 2 -25 8 -5 20
-9 27 -9 6 0 12 -6 12 -14 0 -8 9 -18 20 -21 11 -3 20 -10 20 -15 0 -21 -14
-40 -29 -41 -12 0 -12 -2 4 -9 11 -5 67 -10 125 -11 77 -1 94 -4 65 -9 -32 -6
-25 -7 38 -8 42 0 77 4 77 8 0 5 10 11 23 13 12 2 -10 5 -49 6 -68 1 -147 22
-128 34 5 3 39 8 76 12 37 4 66 11 63 15 -2 4 7 12 20 18 15 7 25 20 25 32 0
12 10 25 25 32 14 6 25 15 25 20 0 4 17 8 38 8 60 0 68 12 32 49 -36 35 -45
38 -54 14 -6 -15 -8 -15 -19 0 -8 10 -41 19 -99 26 -49 6 -97 15 -107 21 -23
12 -19 12 -51 -1z"/>
<path d="M2525 9190 c-33 -4 -83 -8 -111 -9 -36 -1 -66 -9 -100 -28 -45 -26
-47 -28 -23 -31 14 -2 40 -16 58 -33 26 -23 36 -27 47 -18 11 9 15 8 20 -4 7
-18 140 -24 407 -16 48 1 57 4 55 18 -3 12 -15 16 -50 16 -26 0 -52 6 -59 13
-7 6 -21 12 -31 12 -14 0 -18 8 -18 35 0 34 -1 35 -40 35 -22 0 -40 5 -40 10
0 11 -24 11 -115 0z"/>
<path d="M1920 9160 c0 -5 5 -10 10 -10 6 0 10 5 10 10 0 6 -4 10 -10 10 -5 0
-10 -4 -10 -10z"/>
<path d="M3475 9140 c-3 -5 3 -10 15 -10 12 0 18 5 15 10 -3 6 -10 10 -15 10
-5 0 -12 -4 -15 -10z"/>
<path d="M1794 9099 c-15 -17 -16 -23 -6 -40 10 -16 9 -19 -5 -19 -15 -1 -15
-3 3 -13 12 -7 19 -17 17 -23 -2 -6 15 -20 39 -30 36 -15 39 -18 21 -22 -58
-9 0 -32 83 -32 65 0 96 15 89 43 -7 28 26 47 65 37 32 -8 39 -39 11 -47 -40
-10 -21 -23 34 -23 41 0 55 4 55 14 0 8 -10 17 -22 19 -23 4 -23 4 1 6 19 1
22 5 18 23 -4 12 -1 28 6 36 9 11 7 18 -11 32 -12 10 -30 17 -39 15 -68 -14
-73 -16 -73 -35 0 -18 -3 -19 -20 -8 -11 7 -20 18 -20 24 0 7 -9 14 -20 17
-25 6 -26 34 -2 40 9 3 -18 5 -61 6 -43 0 -87 -4 -98 -9 -13 -7 -19 -7 -19 0
0 17 -26 11 -46 -11z"/>
<path d="M1486 9071 c-10 -16 5 -18 64 -11 52 7 53 7 13 9 -23 0 -48 4 -56 7
-8 3 -18 1 -21 -5z"/>
<path d="M4208 9063 c6 -2 18 -2 25 0 6 3 1 5 -13 5 -14 0 -19 -2 -12 -5z"/>
<path d="M4283 9053 c9 -2 23 -2 30 0 6 3 -1 5 -18 5 -16 0 -22 -2 -12 -5z"/>
<path d="M2720 8999 c0 -5 5 -7 10 -4 6 3 10 8 10 11 0 2 -4 4 -10 4 -5 0 -10
-5 -10 -11z"/>
<path d="M2445 8980 c-15 -6 -8 -9 28 -9 30 -1 46 3 42 9 -7 12 -42 12 -70 0z"/>
<path d="M2601 8976 c2 -2 38 -6 79 -9 45 -3 67 -2 55 3 -19 8 -143 14 -134 6z"/>
<path d="M1584 8949 c-3 -5 -4 -9 -2 -10 25 -6 39 -6 43 1 3 4 -4 10 -15 13
-11 3 -23 1 -26 -4z"/>
<path d="M3795 8950 c-3 -5 -1 -10 4 -10 6 0 11 5 11 10 0 6 -2 10 -4 10 -3 0
-8 -4 -11 -10z"/>
<path d="M2480 8922 c0 -12 203 -20 265 -11 28 5 13 7 -51 8 -50 0 -119 4
-153 7 -40 5 -61 3 -61 -4z"/>
<path d="M3000 8901 c8 -4 87 -11 175 -14 88 -3 151 -2 140 2 -29 12 -333 23
-315 12z"/>
<path d="M3053 8843 c9 -2 23 -2 30 0 6 3 -1 5 -18 5 -16 0 -22 -2 -12 -5z"/>
<path d="M2718 8763 c12 -2 30 -2 40 0 9 3 -1 5 -23 4 -22 0 -30 -2 -17 -4z"/>
<path d="M2528 8713 c6 -2 18 -2 25 0 6 3 1 5 -13 5 -14 0 -19 -2 -12 -5z"/>
<path d="M4631 8643 c-7 -8 -10 -22 -6 -31 5 -13 8 -14 14 -3 5 7 11 9 13 5 8
-15 9 -107 2 -139 -6 -27 -8 -28 -15 -10 -6 13 -7 4 -3 -25 4 -25 10 -46 15
-48 5 -2 9 -29 9 -60 0 -30 3 -53 6 -49 4 3 6 83 6 177 -1 128 -4 174 -14 184
-11 11 -16 11 -27 -1z"/>
<path d="M2840 8625 l-45 -13 41 -1 c29 -1 44 4 48 14 3 8 4 15 3 14 -1 -1
-22 -7 -47 -14z"/>
<path d="M2545 8550 c3 -5 12 -7 20 -3 21 7 19 13 -6 13 -11 0 -18 -4 -14 -10z"/>
<path d="M4190 8228 l25 -12 -27 -3 c-15 -3 -36 1 -48 7 -11 6 -24 8 -29 5 -5
-3 -39 -7 -75 -9 -73 -3 -104 -19 -84 -43 10 -13 30 -14 123 -7 60 5 140 7
178 6 41 -2 67 1 67 8 0 5 -4 10 -10 10 -5 0 -7 7 -4 15 4 8 2 15 -2 16 -5 0
-18 2 -29 4 -109 16 -111 16 -85 3z"/>
<path d="M4661 8224 c0 -11 3 -14 6 -6 3 7 2 16 -1 19 -3 4 -6 -2 -5 -13z"/>
<path d="M3910 8171 c0 -6 4 -13 10 -16 6 -3 7 1 4 9 -7 18 -14 21 -14 7z"/>
<path d="M3670 8084 c0 -8 5 -12 10 -9 6 4 8 11 5 16 -9 14 -15 11 -15 -7z"/>
<path d="M5353 8022 c-6 -10 -14 -37 -18 -60 -6 -35 -4 -42 9 -42 9 0 16 6 16
13 0 9 3 8 9 -2 12 -19 19 -3 18 46 0 49 -17 71 -34 45z m14 -54 c-3 -7 -5 -2
-5 12 0 14 2 19 5 13 2 -7 2 -19 0 -25z"/>
<path d="M3716 7995 c8 -37 14 -45 14 -19 0 10 -5 26 -10 34 -8 11 -9 7 -4
-15z"/>
<path d="M4021 7997 c-25 -25 -6 -99 34 -129 22 -17 44 -22 85 -18 l25 2 -25
7 c-22 6 -25 12 -26 59 -1 45 2 52 18 52 11 0 29 -5 40 -11 12 -7 24 -7 30 -1
12 12 -62 39 -124 45 -26 2 -51 0 -57 -6z"/>
<path d="M4237 7939 c6 -20 9 -21 56 -23 30 -2 36 8 10 18 -68 24 -71 24 -66
5z"/>
<path d="M3665 7899 c-10 -15 1 -23 20 -15 9 3 13 10 10 16 -8 13 -22 13 -30
-1z"/>
<path d="M4298 7893 c7 -3 16 -2 19 1 4 3 -2 6 -13 5 -11 0 -14 -3 -6 -6z"/>
<path d="M5188 7654 c-11 -17 -5 -66 8 -71 6 -2 9 -14 7 -27 -5 -26 15 -46 27
-26 5 7 16 9 29 5 13 -4 28 -1 37 6 13 11 11 15 -13 35 -34 28 -40 29 -46 7
-4 -17 -5 -17 -6 0 0 9 -7 17 -15 17 -9 0 -16 12 -18 33 -2 18 -6 27 -10 21z"/>
<path d="M5040 7610 c0 -5 5 -10 11 -10 5 0 7 5 4 10 -3 6 -8 10 -11 10 -2 0
-4 -4 -4 -10z"/>
<path d="M5110 7509 c0 -5 5 -7 10 -4 6 3 10 8 10 11 0 2 -4 4 -10 4 -5 0 -10
-5 -10 -11z"/>
<path d="M3581 7494 c0 -11 3 -14 6 -6 3 7 2 16 -1 19 -3 4 -6 -2 -5 -13z"/>
<path d="M3610 7216 c0 -8 11 -28 25 -44 16 -19 25 -42 25 -65 0 -19 7 -50 14
-68 l15 -34 7 32 c6 28 10 32 35 29 16 -2 35 -9 44 -16 21 -17 117 -1 176 29
8 5 28 7 45 5 16 -2 45 2 64 8 19 6 41 12 48 14 9 3 10 9 3 22 -8 15 -22 19
-68 19 -32 1 -85 8 -118 16 -94 23 -142 27 -162 11 -26 -19 -57 -17 -84 6 -23
18 -23 19 -4 20 16 0 15 3 -9 15 -36 19 -56 19 -56 1z"/>
<path d="M5021 7220 c-1 -17 28 -105 35 -107 5 -2 8 17 6 42 -3 29 -9 45 -17
45 -7 0 -16 6 -18 13 -3 6 -6 10 -6 7z"/>
<path d="M5001 7156 c-10 -19 -10 -27 0 -44 8 -12 20 -24 27 -27 23 -8 33 5
17 21 -8 9 -15 26 -15 39 0 33 -15 39 -29 11z"/>
<path d="M5040 7060 c0 -5 5 -10 11 -10 5 0 7 5 4 10 -3 6 -8 10 -11 10 -2 0
-4 -4 -4 -10z"/>
<path d="M4836 6875 c4 -8 10 -15 15 -15 5 0 9 7 9 15 0 8 -7 15 -15 15 -9 0
-12 -6 -9 -15z"/>
<path d="M3730 6845 c0 -5 5 -17 10 -25 5 -8 10 -10 10 -5 0 6 -5 17 -10 25
-5 8 -10 11 -10 5z"/>
<path d="M4419 6784 c-8 -9 -32 -25 -54 -35 -22 -10 -47 -23 -55 -28 -27 -17
-83 -41 -96 -41 -7 0 -16 -4 -19 -10 -22 -35 205 62 245 105 18 19 20 25 8 25
-9 0 -22 -7 -29 -16z"/>
<path d="M3814 6711 c11 -11 23 -21 28 -21 14 0 -1 19 -25 31 -22 12 -22 12
-3 -10z"/>
<path d="M4118 6643 c7 -3 16 -2 19 1 4 3 -2 6 -13 5 -11 0 -14 -3 -6 -6z"/>
<path d="M4038 6633 c7 -3 16 -2 19 1 4 3 -2 6 -13 5 -11 0 -14 -3 -6 -6z"/>
<path d="M4001 6568 c7 -16 16 -28 21 -28 13 0 10 9 -13 33 l-21 22 13 -27z"/>
<path d="M2808 6463 c6 -2 18 -2 25 0 6 3 1 5 -13 5 -14 0 -19 -2 -12 -5z"/>
<path d="M2890 6461 c-8 -5 -39 -11 -69 -14 -29 -4 -59 -12 -67 -18 -18 -15
-19 -35 -1 -22 22 17 93 33 148 34 38 0 48 3 34 8 -19 8 -18 9 5 13 23 5 22 5
-5 6 -16 1 -37 -2 -45 -7z"/>
<path d="M2675 6364 c-22 -22 -11 -30 15 -11 12 8 17 18 12 21 -6 3 -18 -1
-27 -10z"/>
<path d="M4543 5810 c0 -30 2 -43 4 -27 2 15 2 39 0 55 -2 15 -4 2 -4 -28z"/>
<path d="M3585 5725 c11 -98 27 -156 50 -183 28 -31 32 -15 8 31 -9 18 -27 70
-40 117 -19 71 -22 77 -18 35z"/>
<path d="M4535 5720 c3 -5 8 -10 11 -10 2 0 4 5 4 10 0 6 -5 10 -11 10 -5 0
-7 -4 -4 -10z"/>
<path d="M4532 5620 c0 -14 2 -19 5 -12 2 6 2 18 0 25 -3 6 -5 1 -5 -13z"/>
<path d="M3082 2250 c0 -14 2 -19 5 -12 2 6 2 18 0 25 -3 6 -5 1 -5 -13z"/>
</g>
</svg>
